<?xml version="1.0" standalone="no"?>
<!DOCTYPE svg PUBLIC "-//W3C//DTD SVG 20010904//EN"
 "http://www.w3.org/TR/2001/REC-SVG-20010904/DTD/svg10.dtd">
<svg version="1.0" xmlns="http://www.w3.org/2000/svg"
 width="2246.000000pt" height="2246.000000pt" viewBox="0 0 2246.000000 2246.000000"
 preserveAspectRatio="xMidYMid meet">
<metadata>
Created by potrace 1.14, written by Peter Selinger 2001-2017
</metadata>
<g transform="translate(0.000000,2246.000000) scale(0.100000,-0.100000)"
fill="#000000" stroke="none">
<path d="M6383 17517 c-12 -5 -23 -17 -25 -25 -3 -14 -5 -14 -18 -1 -18 17
-46 18 -42 1 1 -7 -5 -12 -13 -12 -8 0 -15 -5 -15 -10 0 -6 -11 -15 -25 -22
-13 -6 -22 -15 -19 -19 3 -5 0 -9 -6 -9 -6 0 -8 -4 -5 -10 3 -5 1 -10 -4 -10
-14 0 -51 -37 -51 -50 0 -5 -6 -9 -12 -7 -7 1 -12 -4 -10 -10 1 -7 -3 -13 -9
-13 -13 0 -69 -58 -69 -72 0 -5 -4 -6 -10 -3 -5 3 -10 1 -10 -5 0 -6 -4 -8
-10 -5 -6 4 -7 -1 -3 -11 5 -13 3 -16 -10 -11 -9 3 -17 2 -17 -4 0 -5 -22 -32
-50 -59 -27 -27 -50 -54 -50 -60 0 -6 -4 -9 -9 -6 -5 3 -12 -1 -15 -10 -3 -8
-10 -12 -16 -9 -6 3 -10 -4 -10 -16 0 -12 -3 -20 -6 -17 -6 7 -144 -129 -144
-142 0 -5 -7 -6 -17 -3 -11 4 -14 3 -9 -5 4 -7 1 -15 -8 -18 -9 -3 -16 -13
-16 -21 0 -8 -3 -12 -7 -10 -10 6 -53 -39 -46 -47 4 -3 1 -6 -6 -6 -7 0 -27
-16 -43 -35 -17 -19 -35 -32 -40 -29 -4 3 -8 0 -8 -6 0 -7 -30 -41 -66 -76
-36 -35 -62 -64 -57 -64 4 -1 -4 -8 -19 -16 -16 -8 -28 -22 -28 -31 0 -9 -3
-13 -6 -10 -8 7 -44 -31 -44 -45 0 -5 -4 -7 -8 -4 -4 2 -23 -13 -41 -34 -19
-22 -38 -37 -44 -33 -5 3 -7 1 -4 -4 8 -12 -17 -36 -26 -26 -4 3 -7 -4 -7 -17
0 -13 -3 -21 -6 -18 -6 7 -104 -89 -104 -102 0 -5 -7 -6 -17 -3 -9 4 -14 2
-10 -3 3 -6 -3 -16 -13 -24 -10 -8 -17 -17 -14 -22 3 -4 -1 -8 -9 -8 -8 0 -18
-7 -21 -16 -3 -8 -10 -12 -16 -9 -5 3 -10 -3 -10 -15 0 -12 -3 -19 -7 -17 -10
5 -143 -130 -135 -137 3 -3 -5 -6 -17 -6 -12 0 -19 -4 -16 -10 3 -6 -1 -13 -9
-16 -9 -3 -13 -10 -10 -15 3 -5 0 -9 -6 -9 -6 0 -34 -24 -62 -52 -28 -29 -55
-52 -60 -50 -5 1 -7 -2 -3 -8 3 -5 -1 -13 -9 -16 -9 -3 -16 -12 -16 -20 0 -8
-6 -11 -17 -7 -10 4 -14 2 -10 -4 4 -6 -6 -21 -22 -34 -16 -13 -27 -27 -25
-31 3 -4 -1 -8 -9 -8 -7 0 -23 -14 -36 -30 -12 -17 -26 -28 -32 -25 -5 4 -9 1
-9 -5 0 -6 -27 -38 -60 -71 -33 -32 -60 -64 -60 -69 0 -6 -3 -9 -7 -8 -10 4
-59 -45 -56 -54 2 -4 -6 -10 -17 -13 -11 -4 -18 -11 -15 -16 4 -5 -3 -9 -14
-9 -12 0 -20 -4 -19 -9 2 -5 -19 -31 -47 -57 -27 -27 -49 -52 -48 -56 2 -4 -6
-10 -17 -13 -11 -4 -18 -11 -15 -16 4 -5 -3 -9 -15 -9 -12 0 -19 -4 -15 -9 3
-5 -6 -18 -20 -29 -14 -11 -25 -26 -25 -33 0 -7 -3 -10 -6 -6 -3 3 -35 -25
-71 -61 -36 -37 -70 -66 -74 -65 -5 2 -9 -7 -9 -19 0 -12 -3 -19 -6 -16 -7 7
-144 -129 -144 -143 0 -6 -4 -8 -9 -5 -5 3 -12 -1 -15 -10 -3 -8 -10 -12 -16
-9 -5 3 -10 -3 -10 -15 0 -12 -4 -18 -10 -15 -5 3 -10 2 -10 -4 0 -6 -12 -17
-27 -25 -16 -8 -24 -15 -18 -16 5 0 -17 -26 -50 -57 -33 -32 -59 -61 -58 -65
2 -4 -1 -8 -5 -8 -15 0 -52 -37 -45 -44 3 -3 0 -6 -8 -6 -17 0 -49 -34 -49
-52 0 -6 -3 -9 -6 -6 -7 7 -209 -194 -206 -204 1 -5 -2 -8 -6 -8 -15 0 -52
-37 -45 -44 3 -3 -1 -6 -10 -6 -10 0 -17 -7 -17 -15 0 -9 -6 -12 -17 -8 -12 5
-15 2 -10 -10 3 -9 2 -17 -3 -17 -14 0 -129 -118 -122 -125 3 -3 -2 -5 -12 -5
-11 0 -14 -4 -10 -12 5 -8 2 -9 -9 -5 -15 6 -22 -3 -18 -25 0 -5 -6 -8 -15 -8
-8 0 -12 -4 -9 -10 3 -5 2 -10 -4 -10 -12 0 -154 -140 -143 -141 4 0 -1 -4
-11 -8 -10 -4 -19 -11 -19 -16 -1 -6 -17 -20 -37 -32 -20 -12 -35 -25 -35 -30
3 -16 -8 -33 -17 -27 -5 3 -13 -5 -18 -18 -6 -13 -10 -20 -10 -16 -1 4 -32
-23 -69 -60 -38 -37 -67 -70 -65 -74 2 -5 -3 -8 -11 -8 -9 0 -16 -7 -16 -16 0
-8 -5 -12 -10 -9 -6 3 -10 1 -10 -5 0 -6 -5 -8 -12 -4 -6 4 -8 3 -5 -3 8 -13
-17 -36 -28 -25 -5 4 -5 1 -1 -6 5 -9 1 -15 -12 -19 -14 -3 -19 -10 -15 -21 4
-10 3 -14 -1 -11 -8 8 -56 -37 -56 -52 0 -6 -3 -8 -7 -6 -10 5 -143 -130 -135
-137 3 -3 -2 -6 -10 -6 -9 0 -18 -7 -22 -15 -3 -8 -12 -15 -20 -15 -10 0 -13
-6 -9 -17 4 -9 2 -14 -3 -11 -5 2 -39 -26 -76 -64 -37 -37 -64 -68 -60 -69 4
0 -1 -4 -11 -8 -10 -4 -17 -10 -15 -14 3 -7 -30 -34 -47 -36 -5 -1 -17 -16
-27 -34 -9 -18 -19 -31 -22 -30 -9 4 -205 -195 -198 -201 3 -3 -2 -6 -11 -6
-9 0 -17 -7 -17 -16 0 -8 -4 -13 -9 -10 -5 3 -12 -1 -15 -10 -3 -9 -11 -12
-18 -8 -7 4 -10 4 -7 0 4 -4 -27 -41 -67 -82 -41 -41 -74 -80 -74 -86 0 -6 -3
-8 -6 -5 -4 3 -19 -7 -34 -23 -15 -16 -31 -26 -35 -22 -5 4 -5 2 -2 -4 4 -6
-9 -24 -28 -39 -18 -16 -32 -33 -29 -37 3 -4 1 -8 -4 -8 -14 0 -52 -36 -45
-44 3 -3 -1 -6 -10 -6 -9 0 -23 -12 -31 -27 -8 -16 -15 -24 -16 -20 0 5 -30
-22 -67 -60 -37 -37 -66 -71 -65 -75 1 -5 -2 -8 -8 -8 -13 0 -50 -37 -50 -50
0 -6 -4 -9 -8 -8 -10 4 -157 -144 -154 -154 1 -5 -2 -8 -7 -8 -14 0 -71 -57
-64 -64 3 -3 -1 -6 -9 -6 -9 0 -23 -11 -32 -25 -10 -15 -22 -23 -29 -19 -7 4
-9 4 -5 0 8 -9 -114 -136 -125 -129 -4 2 -7 1 -6 -4 3 -17 -1 -33 -8 -31 -10
4 -59 -45 -55 -54 1 -5 -2 -8 -6 -8 -13 0 -52 -36 -46 -42 3 -3 -7 -9 -21 -12
-14 -4 -24 -10 -21 -15 3 -4 -10 -22 -29 -39 -19 -16 -35 -35 -35 -42 0 -6 -3
-9 -7 -7 -10 6 -53 -39 -46 -47 4 -3 -1 -6 -9 -6 -9 0 -19 -7 -22 -16 -3 -9
-11 -12 -18 -8 -8 5 -9 2 -5 -9 3 -10 2 -17 -4 -17 -5 0 -23 -13 -39 -30 -16
-16 -26 -30 -23 -30 4 0 -2 -7 -13 -15 -10 -8 -15 -15 -11 -15 5 0 1 -7 -7
-16 -9 -8 -16 -19 -16 -24 0 -13 118 -129 124 -122 3 3 6 0 6 -6 0 -14 97
-112 112 -112 6 0 9 -3 5 -6 -7 -8 17 -34 32 -34 6 0 11 -7 11 -15 0 -9 9 -19
21 -23 11 -5 21 -12 22 -17 1 -6 5 -9 10 -7 4 1 7 -3 7 -9 0 -13 38 -49 51
-49 4 0 11 -9 14 -20 3 -11 13 -20 21 -20 8 0 12 -4 9 -10 -3 -5 -1 -10 5 -10
6 0 8 -4 5 -10 -3 -5 3 -10 15 -10 12 0 18 -4 15 -10 -3 -5 -2 -10 4 -10 5 0
24 -16 43 -36 103 -110 138 -144 149 -144 7 0 10 -2 7 -5 -7 -7 65 -83 75 -78
4 2 7 0 7 -6 0 -13 98 -111 111 -111 6 0 7 -4 4 -10 -3 -5 1 -10 10 -10 9 0
14 -3 12 -7 -5 -10 30 -43 37 -35 3 3 6 0 6 -6 0 -13 178 -192 191 -192 5 0 9
-5 9 -11 0 -15 26 -39 34 -32 3 4 6 1 6 -5 0 -13 157 -172 171 -172 5 0 9 -4
9 -9 0 -14 67 -80 74 -74 3 4 6 1 6 -5 0 -15 96 -112 111 -112 7 0 10 -2 7 -5
-7 -8 65 -82 74 -78 5 2 8 0 8 -5 0 -12 60 -77 60 -66 1 5 8 -3 16 -18 8 -16
22 -28 31 -28 9 0 14 -3 10 -6 -7 -8 17 -34 32 -34 6 0 11 -4 11 -9 0 -13 159
-171 172 -171 6 0 9 -3 6 -6 -8 -7 36 -54 51 -54 6 0 11 -5 11 -10 0 -13 49
-60 61 -60 5 0 8 -4 7 -9 -4 -11 49 -61 64 -61 6 0 9 -3 6 -6 -8 -7 108 -124
124 -124 6 0 9 -3 5 -6 -6 -7 91 -104 105 -104 5 0 6 -4 3 -10 -3 -5 -2 -10 4
-10 5 0 13 -9 16 -20 4 -11 10 -18 15 -15 4 3 18 -8 31 -24 13 -16 27 -27 31
-25 4 3 8 1 8 -5 0 -14 96 -111 110 -111 6 0 8 -4 5 -10 -3 -5 2 -10 11 -10
10 0 15 -3 12 -6 -8 -7 45 -62 55 -57 4 2 7 -1 7 -7 0 -15 26 -41 34 -33 3 4
6 1 6 -5 0 -14 117 -132 130 -132 6 0 10 -5 10 -11 0 -15 26 -39 34 -32 3 4 6
-1 6 -10 0 -9 12 -23 28 -31 15 -8 23 -15 17 -16 -13 0 53 -60 67 -60 6 0 9
-3 6 -6 -7 -7 59 -74 72 -74 6 0 10 -7 10 -15 0 -8 12 -21 28 -29 15 -8 24
-15 20 -16 -11 0 131 -140 142 -140 6 0 10 -5 10 -11 0 -13 67 -79 80 -79 6 0
9 -4 8 -8 -4 -11 69 -82 82 -82 6 0 10 -7 10 -16 0 -9 9 -18 20 -21 11 -3 20
-9 20 -13 0 -12 178 -190 190 -190 6 0 9 -3 7 -7 -5 -10 30 -43 37 -36 3 4 6
1 6 -6 0 -16 26 -42 34 -34 3 4 6 1 6 -5 0 -14 52 -68 63 -64 4 1 7 -2 7 -7 0
-12 47 -61 60 -61 6 0 9 -3 7 -7 -5 -10 50 -63 57 -55 3 3 6 0 6 -7 0 -16 26
-42 34 -34 3 4 6 1 6 -5 0 -15 50 -68 61 -64 5 1 9 -2 9 -8 0 -13 66 -80 79
-80 6 0 11 -4 11 -10 0 -14 138 -149 144 -142 4 3 6 -2 6 -11 0 -10 8 -17 17
-17 9 0 14 -3 11 -6 -8 -7 45 -62 55 -57 4 2 7 -1 7 -7 0 -15 26 -41 34 -33 3
4 6 1 6 -5 0 -13 77 -92 91 -92 6 0 8 -3 6 -7 -5 -10 50 -63 57 -55 3 3 6 0 6
-7 0 -16 26 -42 34 -34 3 4 6 1 6 -6 0 -15 77 -91 92 -91 6 0 9 -2 6 -6 -8 -7
56 -74 71 -74 6 0 11 -7 11 -15 0 -8 5 -15 10 -15 6 0 10 -7 10 -16 0 -8 4
-13 8 -10 5 3 14 -4 22 -14 8 -10 17 -17 22 -14 7 5 12 -10 9 -29 -1 -5 2 -6
7 -3 4 2 16 -6 26 -20 11 -13 25 -24 32 -24 7 0 16 -9 19 -20 3 -11 13 -20 21
-20 8 0 13 -3 11 -7 -5 -10 50 -63 57 -55 3 3 6 0 6 -6 0 -12 110 -126 111
-115 0 5 4 -2 9 -14 5 -13 16 -23 25 -23 8 0 15 -5 15 -11 0 -15 67 -79 74
-71 4 3 6 -2 6 -11 0 -10 7 -17 15 -17 8 0 14 -4 13 -9 -4 -10 49 -61 63 -61
6 0 8 -3 6 -7 -5 -10 50 -63 57 -55 3 3 6 -2 6 -12 0 -9 4 -14 10 -11 6 3 10
1 10 -5 0 -14 66 -80 80 -80 6 0 9 -3 8 -8 -4 -9 88 -102 101 -102 5 0 11 -9
14 -20 3 -11 12 -20 21 -20 9 0 16 -5 16 -11 0 -15 97 -109 112 -109 6 0 9 -3
6 -6 -8 -7 45 -62 55 -57 4 2 7 -1 7 -7 0 -14 119 -130 133 -130 6 0 8 -2 5
-6 -7 -7 78 -94 93 -94 5 0 7 -4 4 -10 -9 -14 19 -12 33 2 9 9 12 8 12 -4 0
-10 7 -15 18 -13 9 2 21 4 25 4 5 1 5 6 2 11 -3 6 0 10 7 10 16 0 49 36 41 44
-4 3 1 6 11 6 9 0 19 7 22 15 4 8 13 15 21 15 9 0 13 6 9 15 -3 8 -1 15 3 15
15 0 71 54 71 67 0 7 5 13 10 13 6 0 21 11 34 25 13 13 26 22 29 18 4 -3 7 4
7 17 0 13 3 21 6 17 8 -7 74 59 74 73 0 6 3 9 8 8 4 -2 18 8 32 22 14 14 24
28 22 33 -1 4 7 7 18 7 11 0 19 3 19 8 -3 16 1 32 9 31 16 -3 32 1 31 8 -3 18
2 33 9 31 5 -2 27 17 50 41 34 36 42 41 48 28 3 -9 10 -17 16 -17 5 0 6 5 2
11 -3 6 5 4 19 -6 26 -17 32 -7 13 23 -4 7 -5 16 -2 19 3 3 1 12 -4 18 -8 9
-6 14 5 19 9 3 13 10 10 16 -3 5 0 10 8 10 8 0 18 7 21 16 3 8 10 12 16 9 5
-3 10 1 10 9 0 9 11 23 25 32 14 9 22 20 19 25 -5 8 9 13 29 10 4 0 7 8 7 20
0 11 5 17 10 14 6 -3 10 -1 10 5 0 6 5 8 10 5 6 -4 9 -3 8 2 -2 5 12 23 30 40
17 18 32 36 32 41 0 6 9 12 21 15 12 3 18 10 14 16 -3 6 1 11 10 11 8 0 20 11
26 24 7 14 17 22 25 19 8 -3 14 0 14 7 0 15 51 66 63 62 4 -1 6 2 5 6 -2 4 16
27 40 49 23 23 42 47 42 52 0 6 7 8 15 5 9 -4 15 0 15 10 0 8 9 20 20 26 24
13 26 36 4 44 -8 3 -12 10 -9 16 4 6 12 8 18 4 7 -3 4 1 -5 9 -10 8 -15 17
-11 20 3 4 0 7 -7 7 -15 0 -60 46 -52 54 3 3 -2 6 -12 6 -9 0 -14 5 -11 10 3
6 1 10 -5 10 -15 0 -179 167 -172 175 3 3 -1 5 -9 5 -16 0 -49 34 -49 50 0 6
-5 10 -11 10 -12 0 -63 50 -51 50 4 0 -4 6 -18 13 -13 7 -30 24 -37 37 -7 14
-13 22 -13 18 0 -4 -13 5 -29 20 -15 15 -26 30 -24 35 2 4 -1 7 -8 7 -14 0
-69 55 -69 70 0 5 -7 10 -16 10 -9 0 -18 9 -21 20 -3 11 -9 17 -14 14 -5 -3
-9 3 -9 12 0 10 -3 15 -6 12 -7 -8 -62 45 -57 55 2 4 -1 7 -8 7 -16 0 -80 66
-72 74 4 3 -1 6 -11 6 -9 0 -21 10 -26 23 -5 12 -9 19 -9 15 -1 -12 -71 59
-71 71 0 6 -7 11 -16 11 -9 0 -18 9 -21 20 -3 11 -10 20 -15 20 -14 0 -108 97
-101 104 4 3 1 6 -5 6 -15 0 -82 65 -82 79 0 6 -5 11 -11 11 -13 0 -44 30 -32
31 4 0 -3 5 -16 10 -15 6 -21 14 -17 25 4 10 1 14 -6 12 -13 -5 -50 35 -61 64
-4 11 -12 15 -22 12 -10 -4 -15 0 -15 12 0 9 -3 15 -6 11 -7 -6 -54 41 -54 54
0 5 -6 9 -13 9 -16 0 -87 76 -87 92 0 6 -3 9 -6 5 -8 -7 -54 34 -54 49 0 6 -9
14 -20 17 -11 3 -20 12 -20 21 0 9 -5 16 -10 16 -12 0 -190 177 -190 189 0 5
-8 15 -17 22 -17 13 -17 12 -4 -6 8 -11 1 -6 -15 10 -17 17 -29 33 -27 38 2 4
-1 7 -8 7 -15 0 -109 97 -109 112 0 5 -3 7 -7 5 -10 -5 -63 50 -55 57 3 3 -2
6 -12 6 -9 0 -15 4 -12 9 3 5 -3 11 -14 14 -11 3 -20 12 -20 21 0 9 -5 16 -11
16 -16 0 -90 76 -82 84 3 3 2 6 -4 6 -17 0 -83 62 -83 77 0 7 -5 13 -11 13
-13 0 -69 55 -69 68 0 5 -9 12 -20 15 -11 3 -20 13 -20 22 0 9 -5 13 -10 10
-6 -3 -10 1 -10 10 0 9 -3 14 -7 12 -10 -5 -63 50 -55 57 3 3 -2 6 -11 6 -9 0
-17 7 -17 16 0 8 -3 13 -7 11 -5 -3 -14 1 -21 9 -7 8 -9 14 -5 15 4 0 -2 4
-14 9 -13 5 -23 16 -23 25 0 8 -4 15 -8 15 -13 0 -72 56 -72 68 0 7 -5 12 -11
12 -14 0 -79 67 -79 82 0 6 -3 8 -7 5 -3 -4 -33 21 -66 56 -32 34 -63 61 -69
59 -5 -1 -7 2 -3 8 3 5 1 10 -5 10 -6 0 -8 5 -5 10 3 6 2 10 -3 10 -14 0 -62
47 -55 54 4 3 -1 6 -11 6 -9 0 -14 5 -11 10 3 6 1 10 -6 10 -14 0 -109 97
-109 111 0 5 -5 9 -11 9 -6 0 -26 16 -43 35 -18 19 -36 32 -40 28 -4 -5 -6 -3
-4 3 2 6 -13 27 -32 45 -19 19 -34 37 -32 41 1 5 -2 8 -6 8 -13 0 -132 115
-132 129 0 7 -3 10 -7 8 -10 -5 -43 30 -36 37 4 3 1 6 -5 6 -7 0 -26 15 -43
33 -17 17 -37 30 -43 29 -6 -2 -8 0 -4 4 4 4 -10 24 -31 45 -22 20 -37 40 -33
43 3 3 -2 6 -12 6 -9 0 -14 5 -11 10 3 6 1 10 -5 10 -17 0 -70 56 -70 73 0 11
-5 14 -17 10 -10 -3 -15 -3 -11 2 8 9 -9 28 -34 38 -10 3 -18 11 -18 17 0 15
-25 40 -40 40 -6 0 -8 5 -5 10 3 6 1 10 -4 10 -15 0 -91 77 -91 92 0 6 -2 9
-5 6 -7 -7 -115 98 -115 112 0 6 -3 9 -7 7 -10 -5 -43 30 -36 37 4 3 -1 6 -11
6 -9 0 -14 5 -11 10 3 6 -1 10 -10 10 -8 0 -20 10 -25 23 -5 12 -9 19 -9 15
-1 -11 -71 61 -71 72 0 6 -7 10 -15 10 -9 0 -20 11 -27 25 -6 13 -14 23 -17
21 -3 -2 -12 2 -19 10 -7 8 -9 14 -5 15 4 0 -2 4 -14 9 -13 5 -23 16 -23 25 0
8 -4 15 -10 15 -12 0 -130 119 -130 131 0 5 -4 9 -10 9 -13 0 -79 67 -72 74 3
3 -2 6 -12 6 -9 0 -14 5 -11 10 6 9 -8 14 -28 11 -5 -1 -6 3 -2 8 3 6 -6 18
-20 27 -14 9 -25 23 -25 30 0 8 -5 14 -11 14 -13 0 -44 30 -32 31 4 0 -2 4
-14 9 -13 5 -23 16 -23 24 0 7 -9 16 -21 19 -12 3 -18 10 -14 17 4 6 1 9 -7 8
-7 -2 -12 3 -10 10 1 6 -2 12 -7 12 -14 0 -61 45 -61 59 0 6 -5 11 -11 11 -13
0 -78 68 -71 75 3 3 -1 5 -9 5 -9 0 -25 14 -37 30 -15 20 -18 30 -10 30 7 0
28 16 45 35 18 19 39 35 48 35 8 0 15 4 15 10 0 5 6 7 14 4 9 -3 13 2 12 18
-1 17 52 76 213 238 118 118 218 214 223 213 4 -2 7 0 6 5 -4 10 158 172 166
167 3 -3 4 -2 1 2 -7 9 16 34 26 27 5 -3 8 -2 7 3 -4 11 263 279 274 276 4 -2
7 0 6 5 -3 9 95 108 104 105 5 -2 7 0 6 5 -3 10 54 66 70 68 6 1 12 -3 12 -9
0 -7 7 1 15 17 8 15 15 35 15 42 0 8 7 14 15 14 9 0 18 6 21 14 3 8 13 12 24
9 10 -3 21 1 25 8 5 8 4 10 -3 5 -7 -4 -12 -1 -12 6 0 19 50 74 64 70 6 -2 8
-1 4 3 -9 9 23 45 34 39 5 -3 7 -2 6 3 -3 10 94 109 104 105 5 -1 7 2 5 7 -1
5 42 52 96 104 53 52 97 100 97 106 0 6 6 10 13 8 6 -1 11 4 10 11 -2 6 2 12
8 12 6 0 29 19 52 43 22 23 44 41 48 40 5 -2 8 0 6 5 -1 4 68 77 153 162 85
85 154 158 152 162 -1 5 4 7 11 5 6 -1 11 4 9 12 -2 8 3 11 12 8 9 -4 15 -3
13 1 -3 10 425 438 435 435 4 -2 7 1 5 6 -1 5 33 43 76 84 42 42 77 81 77 88
0 7 3 10 6 6 4 -3 31 20 61 51 30 31 59 56 64 55 5 -2 8 1 6 5 -3 13 140 152
148 144 5 -4 5 -1 1 6 -4 7 -1 15 8 18 9 3 13 10 10 15 -3 5 0 9 6 9 14 0 175
162 172 173 -1 4 4 6 10 5 7 -2 12 3 10 10 -1 6 5 12 13 12 8 0 19 9 25 20 6
11 15 18 21 15 5 -4 8 -3 7 2 -4 11 143 159 154 155 5 -1 7 2 3 8 -3 5 1 13 9
16 9 3 16 12 16 20 0 8 3 13 8 12 4 -2 34 25 67 58 33 34 69 64 80 66 11 2 21
9 21 16 1 6 2 17 3 23 0 5 6 7 11 4 6 -3 10 -3 10 2 0 4 14 14 31 22 22 10 28
16 20 24 -13 13 -15 28 -3 25 9 -3 211 200 205 206 -3 2 5 7 16 11 11 3 23 15
26 26 4 10 9 18 13 15 4 -2 16 8 27 21 11 14 29 34 41 44 74 69 107 102 95 94
-10 -5 -12 -4 -7 3 4 7 11 12 16 12 12 0 60 48 60 60 0 6 5 10 10 10 12 0 50
37 44 43 -2 2 11 15 30 28 20 13 41 34 47 46 7 13 14 21 17 19 6 -6 102 94
102 107 0 6 2 8 5 5 7 -7 93 75 88 84 -2 4 6 9 17 13 11 3 20 14 20 22 0 9 3
14 6 11 7 -7 54 39 54 53 0 6 3 8 8 6 9 -5 42 30 35 37 -4 3 -1 6 5 6 16 0 92
77 85 84 -4 3 1 6 11 6 9 0 14 5 11 10 -3 6 1 10 9 10 8 0 17 9 21 19 3 11 15
23 25 26 10 3 22 15 25 26 4 10 11 19 17 19 6 0 8 3 5 7 -4 3 5 17 19 30 14
12 20 23 14 23 -6 0 -8 5 -5 10 3 6 2 10 -3 10 -12 0 -72 58 -72 69 0 5 -9 13
-20 16 -11 3 -20 13 -20 21 0 8 -4 12 -10 9 -5 -3 -10 1 -10 9 0 9 -6 15 -12
13 -7 -1 -12 3 -11 10 2 6 -6 15 -17 18 -11 4 -20 13 -20 21 0 8 -5 14 -10 14
-13 0 -90 79 -90 92 0 5 -4 6 -10 3 -5 -3 -10 1 -10 10 0 9 -4 13 -10 10 -5
-3 -10 1 -10 9 0 9 -4 16 -9 16 -12 0 -100 88 -94 94 2 2 -5 7 -16 11 -12 3
-21 13 -21 21 0 8 -4 12 -10 9 -5 -3 -10 1 -10 10 0 9 -4 13 -10 10 -5 -3 -10
1 -10 10 0 9 -3 14 -7 12 -5 -2 -16 4 -25 15 -10 10 -15 18 -10 18 4 0 1 4 -6
8 -7 5 -14 18 -17 31 -2 12 0 19 4 16 5 -2 11 6 13 19 4 19 1 23 -17 22 -16
-1 -21 -6 -17 -16 5 -13 3 -13 -10 -2 -13 10 -17 10 -21 0 -4 -11 -6 -10 -6 0
-1 7 -5 10 -11 7 -5 -3 -10 1 -10 9 0 8 -17 27 -37 41 -21 14 -34 25 -30 25 5
0 2 7 -7 15 -8 8 -20 15 -26 15 -6 0 -9 3 -7 8 3 4 -1 13 -9 20 -8 7 -14 10
-14 7 0 -3 -6 0 -14 7 -8 7 -12 16 -10 19 5 8 -33 38 -40 32 -3 -4 -6 1 -6 10
0 10 -7 17 -17 17 -9 0 -13 3 -10 7 4 3 -2 13 -13 20 -11 8 -18 19 -14 24 3 5
2 9 -3 8 -13 -3 -43 12 -43 23 0 14 -27 38 -34 31 -3 -4 -6 1 -6 10 0 10 -7
17 -17 17 -9 0 -14 3 -10 6 8 8 -18 34 -33 34 -6 0 -8 5 -5 10 3 6 1 10 -5 10
-6 0 -8 5 -5 10 4 6 3 10 -2 9 -13 -3 -43 12 -43 23 0 14 -27 38 -34 31 -3 -4
-6 1 -6 10 0 10 -7 17 -16 17 -8 0 -12 5 -9 10 3 6 -1 10 -10 10 -9 0 -14 4
-11 9 11 16 -18 29 -41 18z"/>
<path d="M16100 17505 c-19 -14 -30 -25 -25 -25 6 -1 0 -6 -12 -13 -12 -7 -23
-16 -25 -22 -2 -5 -6 -9 -10 -7 -5 1 -8 -4 -8 -11 0 -8 -11 -20 -25 -27 -14
-7 -23 -15 -21 -18 7 -6 -28 -39 -36 -35 -5 2 -8 -4 -8 -13 0 -10 -3 -14 -7
-11 -7 8 -39 -34 -35 -46 1 -5 -2 -6 -8 -2 -5 3 -13 -1 -16 -9 -3 -9 -10 -13
-15 -10 -5 3 -9 -1 -9 -8 0 -16 -36 -49 -44 -41 -3 4 -6 -1 -6 -9 0 -9 -7 -19
-16 -22 -8 -3 -12 -11 -9 -16 4 -6 3 -10 -2 -9 -18 3 -34 -1 -30 -8 3 -5 -5
-17 -16 -28 -11 -11 -16 -14 -12 -6 5 9 4 12 -3 7 -7 -4 -12 -14 -12 -22 0 -8
-7 -14 -16 -14 -8 0 -12 -4 -9 -10 3 -5 -2 -10 -11 -10 -10 0 -15 -3 -11 -6 8
-8 -25 -44 -41 -44 -7 0 -10 -4 -7 -10 3 -5 -2 -10 -11 -10 -10 0 -15 -3 -11
-6 3 -3 -3 -16 -14 -28 -20 -23 -55 -28 -67 -10 -4 5 -17 9 -30 10 -20 1 -21
-1 -7 -16 8 -9 12 -20 8 -24 -5 -4 0 -13 10 -21 16 -12 16 -13 -3 -18 -11 -3
-20 -12 -20 -21 0 -9 -7 -16 -16 -16 -8 0 -12 -4 -9 -10 3 -5 -2 -10 -11 -10
-10 0 -14 -3 -11 -7 7 -7 -51 -63 -65 -63 -5 0 -7 -3 -5 -7 2 -5 -7 -19 -21
-33 -16 -16 -20 -18 -11 -5 13 18 13 19 -3 6 -10 -7 -18 -20 -18 -27 0 -8 -7
-14 -17 -14 -9 0 -14 -3 -10 -6 7 -8 -47 -64 -62 -64 -6 0 -10 -6 -8 -12 1 -7
-3 -12 -10 -11 -6 2 -15 -6 -18 -17 -4 -11 -11 -18 -16 -15 -5 4 -9 -1 -9 -9
0 -9 -7 -16 -16 -16 -8 0 -12 -4 -9 -10 3 -5 -2 -10 -11 -10 -10 0 -15 -3 -11
-6 8 -8 -48 -64 -64 -64 -7 0 -10 -3 -6 -6 8 -8 -47 -64 -63 -64 -6 0 -8 -4
-5 -10 3 -5 -1 -10 -10 -10 -9 0 -14 -3 -12 -7 6 -10 -19 -34 -27 -26 -3 4 -6
-3 -6 -15 0 -14 6 -22 18 -22 16 -1 16 -1 -1 -14 -16 -13 -16 -15 8 -30 14 -9
23 -21 20 -26 -4 -6 -2 -10 4 -10 6 0 21 -11 34 -24 14 -14 28 -22 33 -18 4 4
4 2 1 -4 -4 -7 9 -25 28 -41 19 -17 35 -36 35 -42 0 -7 5 -9 10 -6 6 3 10 1
10 -5 0 -6 5 -8 10 -5 6 4 9 3 8 -2 -2 -5 7 -19 20 -33 12 -13 22 -29 22 -34
0 -6 5 -4 10 4 8 13 10 12 10 -3 0 -10 5 -15 10 -12 6 4 9 2 8 -3 -2 -5 13
-25 32 -43 19 -19 34 -37 33 -41 -2 -4 6 -10 17 -13 11 -4 20 -13 20 -21 0 -8
4 -13 8 -10 4 3 28 -17 51 -44 24 -27 48 -47 52 -44 8 5 13 -10 10 -28 0 -5 3
-8 9 -8 5 0 24 -15 41 -32 17 -18 36 -32 41 -30 5 1 7 -2 3 -7 -3 -6 4 -15 15
-21 11 -6 18 -15 15 -21 -4 -5 1 -9 10 -9 9 0 13 -4 10 -10 -3 -5 0 -10 8 -10
8 0 18 -7 21 -16 3 -9 11 -12 18 -8 7 4 10 4 6 -1 -4 -4 5 -19 20 -33 15 -14
26 -29 25 -33 -2 -4 6 -10 16 -14 10 -3 33 -23 51 -45 18 -22 38 -37 43 -33 6
3 7 1 3 -5 -4 -7 -3 -12 3 -12 5 0 13 -10 16 -21 6 -17 9 -19 16 -8 5 9 9 9 9
2 0 -17 62 -83 72 -77 4 3 8 0 8 -6 0 -6 14 -24 30 -40 17 -16 30 -34 30 -40
0 -6 5 -8 10 -5 6 3 10 1 10 -5 0 -6 5 -8 12 -4 7 4 8 3 4 -4 -3 -6 3 -16 14
-22 11 -6 18 -15 15 -21 -4 -5 0 -9 8 -9 8 0 18 -7 21 -16 3 -8 11 -12 17 -8
7 4 9 3 6 -3 -4 -6 6 -21 22 -34 16 -13 28 -26 25 -30 -2 -4 11 -14 29 -23 17
-8 26 -16 19 -16 -10 0 -10 -3 0 -14 7 -8 17 -11 22 -8 5 3 7 -2 3 -11 -4 -11
-1 -17 8 -17 8 0 15 -4 15 -10 0 -5 5 -10 11 -10 14 0 89 -76 89 -91 0 -5 5
-7 10 -4 6 3 10 1 10 -5 0 -6 5 -8 12 -4 7 4 8 3 4 -4 -3 -6 3 -16 14 -22 11
-6 18 -15 15 -21 -4 -5 -2 -9 3 -9 14 0 52 -36 52 -49 0 -6 4 -11 10 -11 5 0
33 -24 62 -52 28 -29 57 -52 62 -50 6 2 8 0 4 -4 -4 -4 5 -18 20 -32 15 -14
26 -29 25 -33 -2 -4 6 -11 17 -14 11 -4 20 -13 20 -21 0 -8 4 -13 10 -9 5 3
16 -7 24 -22 8 -15 15 -24 16 -19 0 5 13 -5 28 -22 16 -18 32 -29 36 -24 4 4
6 2 4 -4 -2 -5 21 -34 50 -62 28 -29 52 -57 52 -62 0 -6 5 -10 11 -10 6 0 25
-16 43 -35 18 -19 37 -31 41 -27 5 4 5 2 2 -4 -7 -12 57 -74 76 -74 7 0 7 -4
-2 -9 -11 -7 -9 -10 8 -16 11 -3 21 -11 21 -16 0 -6 5 -7 10 -4 6 4 9 2 8 -2
-4 -11 84 -98 94 -95 5 1 7 -2 5 -7 -1 -5 13 -23 31 -40 17 -17 32 -36 32 -41
0 -6 3 -9 8 -9 19 3 33 -2 27 -10 -3 -5 4 -16 15 -24 11 -7 17 -17 13 -20 -3
-4 1 -7 9 -7 9 0 19 -7 22 -16 3 -9 11 -12 18 -8 7 4 10 4 6 -1 -4 -4 5 -19
20 -33 15 -14 26 -30 25 -34 -2 -4 1 -8 6 -8 12 0 76 -63 74 -72 -2 -5 1 -8 5
-8 15 0 52 -37 52 -51 0 -11 2 -11 10 1 8 13 10 13 10 -1 0 -9 13 -27 30 -40
16 -13 30 -30 30 -38 0 -8 3 -11 7 -8 3 4 13 -2 20 -13 8 -11 20 -17 26 -14 7
4 9 3 5 -1 -5 -5 6 -21 24 -37 17 -15 27 -28 22 -28 -5 -1 2 -7 16 -15 14 -7
24 -17 22 -20 -2 -4 7 -13 20 -20 13 -6 22 -17 21 -23 -2 -7 1 -12 7 -12 5 0
24 -15 41 -32 17 -18 35 -32 40 -31 5 2 8 0 7 -5 -2 -4 12 -22 30 -41 17 -19
32 -38 32 -43 0 -5 4 -7 8 -4 11 6 42 -30 34 -39 -4 -4 -2 -5 3 -3 12 4 55
-38 55 -54 0 -6 3 -9 6 -5 7 6 74 -60 74 -74 0 -5 5 -9 11 -9 13 0 49 -38 49
-52 0 -4 3 -7 8 -7 18 3 33 -2 28 -9 -3 -5 6 -19 19 -30 14 -12 25 -26 25 -32
0 -5 4 -9 8 -7 4 1 20 -10 34 -25 14 -15 29 -24 33 -20 5 4 5 1 1 -6 -4 -7 -1
-15 8 -18 9 -3 16 -13 16 -21 0 -8 5 -11 10 -8 6 3 10 -1 10 -10 0 -9 4 -14 8
-11 5 3 19 -8 31 -25 13 -17 27 -27 34 -23 7 4 9 4 5 -1 -4 -4 17 -31 46 -60
29 -30 56 -61 60 -70 3 -9 10 -14 15 -10 5 3 12 -4 16 -15 3 -11 9 -19 13 -17
4 1 8 -2 10 -8 2 -5 12 -13 23 -17 10 -4 19 -14 19 -23 0 -8 5 -15 10 -15 6 0
20 -11 32 -25 11 -13 26 -21 32 -18 6 3 8 3 4 -2 -4 -4 8 -23 27 -41 19 -18
35 -37 35 -43 0 -6 5 -11 10 -11 6 0 29 -19 51 -42 23 -24 45 -42 50 -41 5 2
8 -1 6 -6 -1 -5 13 -23 31 -40 17 -17 32 -36 32 -41 0 -6 3 -9 8 -9 18 3 33
-2 28 -9 -3 -5 6 -19 19 -30 14 -12 25 -26 25 -32 0 -5 4 -9 9 -7 5 1 20 -10
34 -25 14 -15 28 -24 33 -20 4 4 4 1 0 -6 -4 -7 -1 -15 8 -18 9 -3 16 -12 16
-20 0 -8 5 -14 10 -14 13 0 70 -57 70 -70 0 -6 5 -10 11 -10 6 0 25 -16 43
-35 18 -19 36 -31 40 -27 4 4 6 2 4 -4 -4 -15 67 -85 78 -76 4 4 4 2 0 -5 -4
-7 4 -19 19 -29 14 -9 25 -23 25 -31 0 -8 4 -12 8 -9 4 2 18 -9 31 -25 13 -16
28 -26 34 -22 5 3 8 2 5 -3 -7 -12 68 -85 78 -76 4 4 4 2 0 -5 -4 -7 6 -21 23
-34 17 -12 28 -26 25 -31 -3 -4 1 -8 9 -8 8 0 22 -11 31 -25 9 -14 22 -23 28
-19 7 4 8 3 4 -4 -4 -7 -3 -12 3 -12 5 0 13 -9 16 -20 4 -11 11 -18 16 -15 5
4 9 1 9 -5 0 -6 5 -8 10 -5 6 4 10 3 9 -2 -3 -18 1 -36 8 -30 3 4 12 -2 20
-13 10 -14 11 -25 4 -37 -6 -10 -11 -15 -11 -12 0 4 -17 -9 -38 -30 -21 -20
-36 -39 -34 -43 2 -5 -2 -9 -7 -9 -6 -1 -17 -2 -23 -3 -7 -1 -11 -10 -10 -21
2 -11 1 -17 -3 -13 -4 4 -24 -13 -45 -37 -21 -24 -40 -42 -43 -39 -2 2 -15
-11 -28 -31 -13 -19 -27 -35 -31 -35 -4 0 -27 -20 -51 -45 -25 -25 -42 -45
-38 -45 3 0 -9 -9 -27 -20 -17 -11 -31 -25 -30 -32 2 -7 -2 -12 -9 -11 -6 2
-15 -6 -18 -17 -4 -11 -11 -18 -16 -15 -5 4 -12 -2 -16 -12 -8 -21 -33 -48
-33 -36 -1 4 -7 -3 -15 -17 -8 -14 -14 -22 -15 -18 0 4 -12 -5 -27 -20 -15
-15 -26 -29 -24 -31 1 -2 -10 -12 -26 -22 -15 -10 -25 -19 -22 -19 4 0 -9 -17
-30 -38 -20 -21 -40 -38 -46 -38 -5 1 -10 -3 -9 -9 1 -5 -7 -18 -17 -27 -11
-10 -19 -16 -19 -13 0 3 -20 -17 -44 -44 -24 -27 -46 -48 -49 -45 -2 2 -15
-11 -28 -31 -13 -19 -27 -35 -30 -35 -3 0 -18 -11 -33 -25 -15 -14 -24 -25
-20 -25 4 0 -3 -9 -16 -20 -13 -11 -27 -20 -32 -20 -5 0 -7 -3 -5 -7 3 -5 -1
-14 -9 -21 -8 -7 -14 -9 -14 -5 0 4 -11 -7 -23 -25 -13 -17 -26 -29 -29 -27
-3 3 -18 -13 -33 -35 -15 -22 -30 -40 -32 -40 -2 0 -1 5 2 10 3 6 -27 -23 -68
-62 -40 -40 -72 -76 -70 -80 4 -8 -21 -12 -41 -9 -5 1 -3 -6 5 -15 8 -10 9
-15 3 -11 -6 3 -17 -5 -24 -18 -7 -13 -17 -22 -22 -19 -4 3 -8 -2 -8 -11 0 -9
-4 -14 -9 -10 -5 3 -12 -4 -16 -14 -3 -11 -15 -23 -26 -26 -11 -4 -18 -9 -15
-12 7 -7 -17 -32 -26 -27 -4 2 -9 -4 -12 -13 -3 -10 -22 -29 -41 -42 -19 -13
-33 -26 -32 -30 2 -3 -10 -18 -25 -33 -15 -15 -28 -24 -28 -20 0 4 -8 -5 -18
-21 -10 -15 -21 -25 -24 -22 -3 3 -16 -10 -29 -30 -13 -19 -32 -38 -42 -41 -9
-3 -15 -10 -12 -15 4 -5 -1 -9 -9 -9 -8 0 -22 -12 -30 -27 -8 -16 -15 -23 -16
-18 0 6 -9 -3 -19 -18 -10 -16 -22 -29 -27 -30 -5 -1 -9 -4 -8 -7 1 -3 -7 -13
-17 -22 -11 -10 -19 -16 -19 -14 0 3 -18 -14 -40 -36 -22 -22 -37 -45 -33 -51
3 -6 1 -7 -6 -3 -6 4 -14 0 -17 -8 -3 -9 -10 -13 -15 -10 -5 3 -18 -10 -29
-28 -11 -18 -20 -29 -20 -25 0 4 -14 -8 -31 -28 -17 -19 -35 -32 -40 -29 -5 3
-6 -3 -2 -12 4 -11 2 -15 -4 -11 -5 3 -16 -5 -23 -19 -8 -14 -20 -22 -27 -19
-8 2 -11 0 -8 -5 3 -6 1 -10 -5 -10 -6 0 -9 -4 -5 -9 3 -5 -4 -12 -15 -16 -11
-4 -18 -10 -15 -15 3 -5 -4 -11 -15 -15 -11 -4 -18 -11 -15 -16 4 -5 -1 -9
-10 -9 -9 0 -14 -4 -10 -9 3 -5 -4 -12 -15 -16 -11 -4 -18 -9 -16 -13 2 -4 -2
-13 -10 -20 -8 -7 -14 -9 -14 -5 0 4 -11 -7 -23 -25 -13 -17 -26 -29 -29 -27
-3 3 -18 -13 -33 -35 -27 -38 -43 -54 -30 -27 4 6 -1 3 -9 -7 -9 -11 -16 -24
-16 -29 0 -4 -3 -6 -7 -4 -10 5 -43 -29 -36 -36 2 -3 -5 -8 -16 -12 -12 -3
-19 -10 -16 -14 2 -4 -7 -14 -20 -21 -13 -7 -22 -17 -20 -21 3 -4 -4 -10 -15
-14 -11 -4 -18 -10 -15 -14 2 -5 -6 -13 -19 -19 -14 -6 -27 -20 -31 -32 -3
-11 -11 -18 -16 -15 -8 5 -13 -7 -11 -26 1 -4 -4 -6 -11 -5 -7 0 -13 -2 -14
-6 -5 -15 -38 -45 -45 -41 -4 2 -9 -6 -13 -17 -4 -11 -9 -19 -13 -17 -10 5
-42 -30 -34 -37 3 -3 1 -6 -4 -6 -6 0 -19 -7 -30 -16 -10 -8 -13 -12 -5 -8 9
5 12 3 7 -4 -4 -7 -14 -12 -22 -12 -8 0 -14 -7 -14 -15 0 -8 -7 -15 -16 -15
-8 0 -13 -4 -9 -9 3 -5 -4 -12 -15 -16 -11 -4 -18 -11 -15 -16 4 -5 -2 -9 -11
-9 -10 0 -15 -2 -12 -6 8 -7 -45 -61 -55 -56 -5 2 -11 -5 -14 -17 -3 -11 -9
-18 -14 -15 -5 3 -9 1 -9 -3 0 -5 -7 -18 -16 -29 -8 -10 -13 -12 -9 -4 4 8 -1
6 -9 -4 -9 -11 -16 -24 -16 -29 0 -4 -3 -6 -7 -4 -5 2 -16 -4 -25 -15 -10 -10
-15 -18 -10 -18 4 -1 -4 -7 -18 -15 -14 -8 -21 -14 -17 -15 5 0 -9 -15 -32
-34 -22 -18 -39 -35 -37 -37 1 -2 -6 -12 -16 -21 -10 -10 -18 -15 -18 -12 0 3
-16 -14 -36 -38 -20 -23 -38 -42 -40 -40 -2 1 -4 0 -4 -3 1 -10 -25 -33 -32
-29 -4 2 -10 -5 -13 -17 -4 -11 -9 -18 -12 -15 -7 6 -33 -19 -33 -33 0 -5 -9
-13 -20 -16 -11 -4 -19 -9 -16 -13 2 -4 -6 -16 -17 -27 -11 -11 -17 -14 -13
-5 4 8 -2 4 -13 -10 -11 -14 -21 -29 -21 -33 0 -5 -4 -6 -9 -2 -5 3 -12 -4
-16 -15 -3 -11 -11 -20 -16 -20 -14 0 -39 -26 -33 -33 3 -3 -4 -8 -15 -12 -12
-3 -19 -11 -16 -16 4 -5 1 -9 -5 -9 -6 0 -8 -5 -4 -12 4 -6 3 -8 -4 -4 -12 7
-74 -48 -65 -58 4 -3 -1 -6 -11 -6 -9 0 -15 -4 -12 -8 3 -5 -12 -19 -33 -33
-21 -13 -36 -30 -34 -36 3 -7 0 -13 -7 -13 -14 0 -41 -26 -34 -33 3 -3 -4 -8
-15 -12 -12 -3 -19 -11 -16 -16 4 -5 -2 -9 -11 -9 -10 0 -15 -2 -12 -6 7 -6
-44 -61 -54 -57 -3 2 -20 -16 -37 -39 -17 -23 -31 -38 -31 -32 0 5 -9 -4 -20
-21 -11 -16 -20 -26 -20 -22 0 4 -6 2 -14 -5 -8 -7 -12 -16 -10 -20 2 -4 -5
-9 -16 -13 -11 -4 -18 -10 -15 -14 2 -4 -7 -14 -20 -21 -13 -7 -22 -17 -20
-21 3 -4 -4 -10 -15 -14 -11 -4 -19 -9 -17 -13 4 -7 -28 -42 -35 -38 -1 1 -13
-8 -25 -21 -12 -13 -21 -23 -19 -23 3 0 -10 -15 -27 -33 -18 -19 -35 -32 -39
-30 -4 2 -9 -6 -13 -17 -4 -11 -9 -19 -13 -17 -4 1 -21 -12 -39 -30 -17 -18
-29 -33 -27 -33 3 0 -1 -6 -8 -14 -7 -8 -16 -12 -20 -9 -5 2 -8 -3 -8 -11 0
-9 -7 -16 -16 -16 -8 0 -13 -4 -9 -9 3 -5 -4 -12 -15 -16 -11 -4 -18 -9 -16
-13 2 -4 -2 -13 -10 -20 -8 -7 -14 -9 -14 -5 0 4 -11 -7 -23 -25 -13 -17 -26
-29 -29 -26 -3 3 -19 -13 -35 -35 -17 -23 -32 -38 -36 -35 -3 3 -8 -4 -12 -15
-3 -12 -11 -21 -16 -21 -14 0 -39 -26 -33 -33 3 -3 -4 -8 -15 -12 -12 -3 -19
-11 -16 -16 4 -5 -1 -9 -10 -9 -9 0 -14 -4 -10 -9 3 -5 -4 -12 -15 -16 -11 -4
-18 -10 -15 -15 3 -5 -4 -11 -15 -15 -11 -4 -18 -11 -15 -16 4 -5 -1 -9 -10
-9 -9 0 -15 -3 -13 -7 4 -8 -48 -63 -58 -62 -3 0 -18 -16 -33 -35 -16 -20 -31
-33 -35 -29 -3 3 -6 1 -6 -5 0 -6 -7 -18 -16 -26 -14 -15 -14 -16 0 -16 9 0
16 -7 16 -16 0 -8 -4 -12 -10 -9 -5 3 -10 -3 -10 -14 0 -12 5 -21 10 -21 6 0
10 -7 10 -16 0 -8 5 -12 10 -9 6 3 10 -1 10 -9 0 -9 5 -16 10 -16 17 0 70 -52
70 -68 0 -9 2 -13 6 -10 6 7 114 -101 114 -114 0 -4 5 -8 11 -8 15 0 39 -26
32 -34 -4 -3 -1 -6 5 -6 15 0 152 -135 152 -149 0 -7 4 -10 8 -7 5 3 15 -6 22
-19 7 -14 17 -25 20 -25 12 0 86 -73 92 -90 3 -8 -2 -24 -11 -34 -13 -16 -13
-18 -1 -11 13 8 13 7 1 -8 -12 -15 -11 -17 12 -17 14 0 29 5 32 10 3 6 9 10
14 10 12 0 91 -78 91 -89 0 -6 7 -11 15 -11 8 0 15 -4 15 -10 0 -5 8 -10 18
-10 14 0 15 -2 2 -10 -9 -6 -10 -10 -3 -10 16 0 113 -96 113 -111 0 -7 3 -10
6 -6 8 7 34 -17 34 -32 0 -6 4 -11 8 -11 13 0 81 -68 74 -74 -3 -3 0 -6 6 -6
18 0 72 -51 72 -67 0 -8 4 -12 8 -9 5 3 15 -6 22 -19 7 -14 17 -25 22 -25 12
0 48 -38 48 -51 0 -5 4 -8 9 -4 6 3 15 -4 21 -15 13 -24 23 -25 44 -5 8 9 17
11 21 6 6 -11 202 179 197 191 -1 5 2 8 7 8 5 0 46 37 92 83 46 45 87 81 91
79 5 -1 7 1 6 5 -1 5 19 30 45 57 26 26 47 52 47 58 0 5 5 6 10 3 6 -3 10 -1
10 5 0 6 4 8 10 5 6 -4 7 1 3 12 -3 10 -3 15 1 11 9 -8 216 197 216 214 0 6 3
9 6 5 4 -3 84 72 179 168 95 95 176 171 179 168 3 -4 6 1 6 10 0 10 5 17 11
17 5 0 7 4 4 10 -6 9 8 14 28 11 5 -1 6 3 2 9 -3 5 1 13 9 16 9 3 13 10 10 15
-3 5 1 9 9 9 8 0 22 11 33 24 10 14 21 23 25 20 4 -2 10 8 13 21 4 14 11 23
16 20 6 -4 13 1 16 10 4 9 13 14 20 11 8 -3 19 4 25 16 8 15 8 18 0 14 -6 -4
-11 -3 -11 3 0 6 11 13 24 17 17 4 23 11 19 22 -4 10 -2 13 5 8 8 -4 16 2 21
16 6 13 10 19 10 15 1 -12 81 72 81 85 0 6 3 9 6 6 7 -7 54 39 54 53 0 6 4 8
8 5 10 -6 42 29 42 46 0 6 2 9 5 6 7 -7 83 65 79 73 -2 4 6 9 17 12 14 4 18
10 13 18 -5 9 -2 10 9 6 11 -4 17 -1 17 8 0 7 15 26 33 40 17 15 26 24 18 19
-9 -5 -12 -3 -7 4 4 7 11 12 15 12 13 0 90 78 83 84 -3 3 1 6 8 6 15 0 100 87
100 102 0 5 4 7 8 4 11 -7 42 30 34 40 -4 4 1 4 11 1 11 -4 16 -3 12 3 -3 6
-1 10 5 10 6 0 8 5 5 10 -3 6 -3 10 2 10 14 0 63 47 56 54 -3 3 -1 6 6 6 16 0
42 26 34 34 -4 3 1 6 9 6 15 0 88 77 88 93 0 4 10 7 23 7 18 0 19 2 7 10 -10
6 -11 10 -3 10 17 0 153 135 153 151 0 7 3 10 6 6 7 -7 74 61 74 76 0 7 4 6
10 -3 8 -12 10 -11 10 8 0 12 4 22 9 22 5 0 31 21 57 47 27 26 53 46 57 45 5
-2 6 1 3 6 -3 4 8 19 25 32 16 14 29 31 29 39 0 8 3 12 6 9 7 -7 150 134 146
144 -1 4 10 11 24 14 13 4 23 9 20 11 -3 3 17 27 44 53 26 27 46 51 42 54 -3
3 2 6 11 6 9 0 17 5 17 11 0 5 4 7 10 4 6 -3 7 1 4 9 -6 15 6 21 30 17 5 -1 6
5 3 12 -3 9 4 19 19 26 13 6 24 18 24 27 0 10 3 15 6 11 7 -7 94 80 94 94 0 5
9 9 20 9 14 0 18 5 13 17 -4 10 -2 14 4 10 12 -7 84 68 75 79 -4 4 1 4 10 1
10 -3 17 -3 17 1 -4 22 3 33 16 28 8 -3 14 -2 13 2 -3 9 103 118 112 115 4 -1
7 3 6 10 0 7 1 12 4 12 12 0 90 84 90 97 0 10 3 9 10 -2 8 -13 10 -12 10 3 0
10 7 20 15 23 8 4 12 10 9 15 -3 5 2 9 10 9 9 0 16 5 16 11 0 5 4 7 10 4 6 -3
7 1 4 9 -6 14 5 20 22 14 4 -2 11 7 15 20 5 13 13 20 19 17 5 -3 10 0 10 8 0
8 13 25 29 38 16 13 27 28 24 33 -4 5 0 7 9 4 14 -6 45 28 40 45 -1 4 4 7 12
7 8 0 17 7 20 16 3 8 10 12 16 9 6 -3 7 1 4 9 -4 10 1 19 12 23 22 8 49 33 37
33 -4 1 4 8 20 16 15 8 27 22 27 32 0 12 3 13 8 5 5 -8 12 -2 21 18 9 20 18
28 28 25 8 -3 11 -1 8 4 -3 6 -1 10 5 10 6 0 8 5 5 10 -3 6 -1 10 4 10 14 0
57 43 53 53 -1 4 5 7 13 7 8 0 15 4 15 8 0 16 41 52 52 46 6 -4 8 -3 5 3 -4 6
0 13 8 17 8 3 15 13 15 21 0 9 3 14 8 12 4 -2 23 13 43 35 20 21 34 38 30 39
-3 0 4 4 17 10 13 5 20 13 17 19 -4 6 -1 9 7 8 7 -2 12 3 10 10 -1 6 3 12 8
12 6 0 24 16 41 35 17 19 36 32 42 28 6 -3 7 -1 3 5 -4 7 -2 12 4 12 6 0 8 4
5 10 -3 5 6 12 20 16 13 3 22 10 19 15 -3 5 0 9 6 9 6 0 8 5 5 10 -3 6 -2 10
4 10 5 0 32 22 60 49 27 27 53 46 56 43 3 -4 3 1 0 10 -4 11 0 18 14 23 12 4
18 11 15 17 -5 8 -1 9 10 5 10 -4 15 -3 11 3 -3 6 -1 10 5 10 6 0 8 5 5 10 -3
6 0 10 8 10 8 0 17 9 20 20 3 12 14 20 26 20 15 0 19 4 14 17 -4 10 -2 14 5 9
6 -3 13 3 17 15 4 13 12 18 21 15 9 -3 12 -1 9 4 -3 6 -1 10 4 10 6 0 11 8 11
17 0 9 3 13 6 10 7 -7 54 42 54 56 0 5 3 6 8 4 9 -6 33 19 26 26 -3 3 3 4 13
3 9 0 18 5 19 12 1 6 2 17 3 23 0 5 6 7 11 4 6 -3 10 -1 10 5 0 6 5 8 10 5 6
-4 9 -3 8 2 -2 4 5 19 15 33 9 13 17 20 17 15 0 -5 9 1 21 13 11 12 24 20 29
17 5 -3 12 0 16 6 5 8 3 9 -7 4 -8 -5 20 24 61 65 41 41 78 73 83 72 4 -1 7 2
7 7 0 13 229 241 242 241 6 0 9 3 5 6 -7 7 171 184 185 184 4 0 8 5 8 11 0 13
182 194 193 191 4 -1 7 2 7 8 0 17 271 280 282 274 7 -4 8 -2 4 4 -7 12 139
163 149 154 3 -3 5 2 5 11 0 10 4 17 9 17 18 0 4 35 -17 45 -12 5 -22 14 -22
19 0 5 -16 23 -34 41 -19 18 -32 36 -28 40 4 4 3 6 -3 5 -19 -4 -35 0 -33 8 2
5 -18 30 -44 56 -27 26 -48 44 -48 39 0 -4 -6 3 -13 17 -7 13 -24 30 -37 37
-14 7 -21 13 -17 13 4 0 -5 13 -20 28 -15 16 -31 27 -35 25 -5 -2 -8 1 -8 8 0
7 -18 29 -40 49 -22 20 -37 40 -32 44 4 4 2 6 -3 4 -6 -1 -25 11 -42 29 -17
17 -34 29 -37 26 -3 -4 -6 -1 -6 6 0 15 -101 116 -112 113 -5 -1 -8 4 -8 12 0
7 -20 32 -45 54 -24 21 -41 43 -37 47 4 3 3 6 -3 5 -5 -1 -17 -2 -25 -1 -13 1
-13 2 0 11 11 7 12 10 2 10 -16 0 -97 81 -94 93 1 5 -2 6 -8 2 -5 -3 -10 -1
-10 5 0 6 -4 8 -10 5 -5 -3 -10 0 -10 8 0 8 -20 33 -45 55 -24 21 -41 43 -37
47 4 3 3 6 -3 5 -18 -4 -35 0 -33 8 3 11 -98 112 -113 112 -7 0 -10 3 -6 6 3
3 -7 19 -23 34 -16 15 -26 31 -22 36 4 4 2 4 -4 1 -13 -7 -45 28 -36 39 4 4 2
4 -5 0 -7 -4 -19 4 -29 19 -9 14 -23 25 -30 25 -8 0 -13 4 -12 8 2 4 -9 20
-24 35 -16 15 -28 24 -28 20 0 -4 -6 3 -13 17 -8 14 -19 24 -25 22 -7 -1 -12
5 -12 13 0 9 -7 18 -15 21 -8 4 -12 10 -9 15 3 5 0 8 -8 7 -7 -2 -12 4 -10 12
2 8 1 12 -3 8 -9 -8 -45 23 -39 34 5 7 -10 12 -28 9 -5 0 -8 4 -8 10 0 14 -67
79 -74 71 -3 -3 -6 1 -6 8 0 15 -46 60 -54 52 -3 -3 -6 0 -6 7 0 14 -101 116
-112 113 -4 -1 -10 7 -13 18 -4 11 -15 25 -26 31 -11 5 -16 15 -13 21 4 7 3 8
-4 4 -7 -4 -12 -2 -12 5 0 7 -3 9 -7 6 -3 -4 -11 3 -17 15 -6 13 -23 28 -36
35 -14 7 -22 13 -17 13 4 0 -28 36 -72 79 -43 44 -76 83 -72 87 3 4 1 5 -4 1
-6 -3 -38 23 -70 59 -33 35 -66 64 -73 64 -7 0 -10 5 -7 10 3 6 1 10 -5 10 -6
0 -8 5 -5 10 4 6 2 9 -3 8 -5 -2 -32 21 -59 50 -28 28 -56 52 -63 52 -6 0 -9
4 -5 10 3 5 -6 17 -20 26 -14 9 -25 24 -25 33 0 14 -2 14 -10 1 -8 -13 -10
-13 -10 2 0 10 -9 22 -20 28 -11 6 -18 15 -15 21 4 5 2 9 -4 9 -13 0 -75 60
-90 88 -6 12 -17 22 -24 22 -15 0 -53 41 -49 53 1 5 -2 6 -8 2 -5 -3 -10 -1
-10 5 0 6 -4 8 -10 5 -5 -3 -10 0 -10 7 0 7 -29 40 -64 73 -36 32 -62 64 -59
70 4 5 3 7 -1 3 -5 -4 -22 9 -39 28 -18 19 -38 34 -44 34 -7 0 -12 3 -11 8 1
4 -14 24 -35 45 -20 20 -37 34 -37 30 0 -5 -6 3 -13 17 -7 13 -22 30 -35 36
-12 6 -19 14 -15 17 3 4 1 7 -6 7 -7 0 -9 5 -6 10 4 6 1 9 -7 8 -7 -2 -12 3
-10 10 1 8 -2 11 -8 7 -5 -3 -10 -2 -10 4 0 5 -10 13 -21 16 -17 6 -19 9 -8
16 11 7 11 9 1 9 -8 0 -35 23 -62 50 -27 28 -54 50 -61 50 -7 0 -10 2 -7 6 8
7 -95 114 -111 114 -7 0 -9 5 -6 10 3 6 1 10 -5 10 -6 0 -8 5 -5 10 4 6 1 9
-7 8 -7 -2 -12 3 -10 10 1 8 -2 11 -8 7 -5 -3 -10 -2 -10 4 0 5 -10 13 -21 16
-17 6 -19 9 -8 16 11 7 10 9 -4 9 -10 0 -15 5 -12 10 4 6 2 9 -3 8 -5 -2 -38
27 -74 64 -36 37 -68 65 -72 61 -3 -3 -6 1 -6 11 0 9 -7 19 -15 22 -8 4 -12
10 -9 15 5 8 -9 13 -28 10 -5 0 -8 5 -8 13 0 8 -7 17 -16 20 -8 3 -12 11 -8
17 4 8 3 9 -4 5 -8 -4 -12 0 -12 11 0 14 -2 15 -9 4 -7 -11 -10 -9 -16 8 -3
11 -11 21 -16 21 -6 0 -7 5 -4 10 4 6 1 9 -7 8 -7 -2 -12 3 -10 10 1 8 -2 11
-8 7 -5 -3 -10 -1 -10 5 0 6 -4 8 -10 5 -5 -3 -10 -1 -10 6 0 15 -121 134
-132 131 -5 -1 -8 3 -8 9 0 14 -61 75 -72 72 -4 -2 -8 3 -8 10 0 7 -9 19 -20
27 -11 8 -20 20 -20 28 0 7 -4 10 -10 7 -5 -3 -10 -1 -10 6 0 7 -3 9 -7 6 -3
-4 -11 3 -17 15 -6 13 -21 28 -34 34 -12 6 -19 14 -15 17 3 4 1 7 -6 7 -7 0
-9 5 -6 10 4 6 3 9 -2 8 -5 -2 -47 35 -93 82 -46 47 -80 79 -75 71 5 -9 4 -12
-3 -7 -6 4 -9 13 -5 21 5 13 -7 20 -29 16 -5 0 -8 4 -8 10 0 16 -62 75 -74 71
-6 -2 -8 -1 -4 3 8 9 -23 45 -34 39 -4 -3 -8 0 -8 5 0 15 -114 131 -129 131
-7 0 -9 5 -6 10 3 6 1 10 -5 10 -6 0 -8 5 -5 10 4 6 1 9 -7 8 -7 -2 -12 3 -10
10 1 8 -2 11 -8 7 -5 -3 -10 -2 -10 4 0 5 -10 13 -21 16 -17 6 -19 9 -8 16 11
7 11 9 1 9 -7 0 -50 37 -95 83 -44 45 -84 81 -89 79 -4 -1 -8 4 -8 11 0 7 -13
23 -30 37 -16 14 -30 30 -30 37 0 7 -6 13 -14 13 -8 0 -17 7 -20 16 -3 8 -11
12 -17 8 -8 -4 -9 -3 -5 4 4 7 3 12 -3 12 -6 0 -17 14 -26 30 -9 17 -22 30
-30 30 -8 0 -22 11 -31 25 -9 14 -20 22 -25 19 -5 -3 -9 0 -9 7 0 6 -16 26
-34 44 -19 18 -32 36 -28 40 4 4 2 5 -4 3 -6 -2 -38 25 -71 60 -33 34 -66 62
-72 62 -7 0 -9 5 -6 10 3 6 1 10 -5 10 -6 0 -8 5 -5 10 4 6 3 9 -2 8 -5 -2
-39 27 -75 64 -36 37 -68 64 -71 62 -3 -3 -8 4 -12 15 -3 12 -11 21 -16 21 -6
0 -8 4 -4 9 3 5 -4 12 -15 16 -11 3 -20 11 -20 16 0 6 -4 7 -10 4 -5 -3 -10
-1 -10 6 0 6 -16 26 -35 43 -19 18 -32 36 -28 41 5 4 3 5 -4 1 -7 -4 -19 4
-29 19 -9 14 -23 25 -30 25 -8 0 -13 3 -12 8 3 10 -63 78 -74 74 -4 -1 -8 5
-8 13 0 9 -7 18 -15 21 -8 4 -12 11 -8 17 3 6 1 7 -6 3 -6 -4 -14 0 -17 8 -3
9 -12 16 -20 16 -8 0 -13 3 -13 8 3 19 -2 33 -11 27 -5 -3 -10 -2 -10 4 0 5
-9 12 -20 16 -11 3 -19 10 -17 14 3 11 -100 111 -115 111 -9 0 -8 3 2 10 13 8
12 10 -3 10 -11 0 -15 4 -11 12 4 6 3 8 -3 5 -6 -4 -23 9 -39 28 -16 19 -35
35 -42 35 -7 0 -11 4 -8 8 6 11 -30 42 -39 34 -4 -4 -5 -2 -3 4 2 7 -9 23 -24
37 -15 14 -24 28 -20 32 4 4 0 5 -8 3 -9 -2 -14 3 -12 12 2 13 1 13 -10 0 -15
-18 -44 -19 -40 -2 3 15 3 16 -38 -13z"/>
<path d="M13009 17125 c-1 -3 -3 -9 -4 -15 -1 -5 -3 -19 -4 -31 0 -11 -5 -17
-11 -14 -10 6 -14 -15 -11 -44 2 -7 -2 -10 -8 -7 -11 7 -25 -29 -16 -44 4 -6
1 -9 -7 -8 -8 2 -13 -6 -12 -19 1 -12 -4 -21 -10 -20 -6 1 -11 -8 -10 -20 0
-12 -4 -21 -10 -20 -6 1 -12 -8 -14 -20 -2 -13 -8 -23 -13 -23 -6 0 -7 -4 -4
-10 3 -5 2 -10 -4 -10 -6 0 -8 -6 -5 -13 3 -8 -2 -20 -10 -27 -9 -7 -13 -16
-10 -21 3 -5 0 -9 -5 -9 -6 0 -11 -11 -11 -25 0 -13 -7 -28 -16 -33 -9 -5 -15
-12 -15 -15 3 -24 0 -37 -9 -32 -5 3 -10 -3 -10 -15 0 -12 -7 -28 -15 -37 -8
-8 -13 -19 -10 -24 4 -5 -2 -9 -12 -9 -15 0 -16 -2 -3 -10 11 -7 11 -10 2 -10
-7 0 -11 -4 -7 -9 3 -5 -1 -16 -9 -24 -8 -8 -12 -17 -9 -21 4 -3 1 -6 -5 -6
-6 0 -14 -15 -17 -32 -4 -18 -17 -44 -29 -57 -11 -13 -14 -20 -7 -16 9 5 5 -5
-7 -22 -12 -17 -22 -41 -22 -52 0 -12 -6 -21 -15 -21 -9 0 -12 -6 -9 -15 4 -8
1 -15 -5 -15 -6 0 -10 -3 -9 -7 4 -16 -13 -51 -28 -57 -8 -3 -12 -11 -9 -16 4
-6 1 -18 -7 -27 -11 -14 -11 -16 2 -9 8 4 7 1 -4 -8 -10 -8 -16 -22 -13 -30 4
-9 1 -15 -6 -13 -7 1 -11 -4 -9 -12 1 -7 -5 -20 -15 -28 -10 -8 -11 -11 -3 -7
12 7 13 5 3 -8 -7 -8 -9 -18 -5 -22 4 -4 0 -6 -8 -4 -8 2 -14 -3 -13 -9 2 -7
-2 -13 -8 -13 -5 0 -8 -4 -4 -9 5 -9 -24 -69 -49 -100 -9 -12 -8 -13 4 -7 9 4
8 2 -2 -7 -10 -8 -15 -17 -11 -20 3 -4 1 -7 -6 -7 -7 0 -10 -4 -7 -9 3 -5 -1
-14 -10 -21 -8 -7 -13 -19 -10 -27 3 -7 1 -13 -4 -13 -6 0 -9 -3 -8 -7 2 -11
-35 -87 -45 -91 -4 -2 -5 -8 -1 -13 3 -5 0 -9 -7 -9 -7 0 -9 -3 -6 -7 4 -3 2
-12 -4 -20 -6 -7 -8 -13 -3 -13 5 0 3 -4 -4 -9 -7 -4 -14 -15 -16 -23 -1 -9
-8 -23 -15 -32 -7 -8 -10 -19 -7 -25 3 -5 -1 -12 -10 -15 -9 -3 -14 -13 -11
-20 3 -8 -1 -17 -9 -20 -8 -3 -14 -12 -14 -21 0 -9 -7 -27 -16 -40 -9 -13 -13
-28 -10 -34 3 -5 -1 -12 -10 -15 -8 -3 -12 -10 -9 -16 3 -5 1 -10 -5 -10 -6 0
-8 -4 -5 -10 3 -5 2 -10 -3 -10 -6 0 -13 -7 -16 -16 -4 -10 -2 -13 7 -9 6 4 4
0 -5 -8 -10 -8 -15 -17 -11 -20 3 -4 1 -7 -5 -7 -6 0 -9 -7 -5 -17 4 -11 3
-14 -5 -9 -8 5 -12 0 -12 -13 0 -12 -4 -21 -10 -21 -5 0 -6 -7 -3 -17 4 -10 2
-14 -5 -9 -7 4 -10 -1 -7 -13 2 -11 -3 -22 -12 -25 -9 -4 -13 -9 -10 -13 4 -3
-1 -12 -11 -20 -9 -8 -11 -12 -4 -8 7 4 1 -14 -12 -38 -14 -24 -22 -47 -19
-51 4 -3 0 -6 -7 -6 -7 0 -10 -3 -7 -7 4 -3 -2 -13 -14 -21 -16 -11 -17 -17
-8 -28 7 -9 8 -14 1 -14 -5 0 -15 -14 -21 -31 -6 -17 -15 -28 -20 -24 -6 3 -8
-4 -6 -16 5 -24 -20 -79 -36 -79 -6 0 -8 -4 -4 -9 3 -5 1 -12 -4 -16 -6 -3 -7
-13 -4 -22 4 -10 2 -14 -4 -10 -7 4 -14 -5 -18 -23 -4 -16 -11 -30 -17 -30 -6
0 -8 -6 -5 -14 3 -8 -1 -17 -10 -20 -8 -4 -13 -13 -10 -20 3 -8 -1 -20 -8 -26
-8 -7 -12 -16 -10 -21 3 -4 -3 -17 -15 -29 -11 -11 -20 -22 -20 -25 0 -3 0
-12 0 -21 0 -9 -5 -12 -12 -8 -8 5 -9 2 -5 -9 3 -9 2 -19 -4 -22 -5 -4 -7 -11
-4 -16 4 -5 -1 -9 -9 -9 -10 0 -13 -6 -10 -15 4 -8 1 -15 -6 -15 -7 0 -10 -7
-7 -15 4 -8 2 -17 -4 -20 -5 -4 -6 -11 -3 -17 4 -6 2 -8 -3 -5 -10 6 -35 -41
-37 -68 -1 -5 -7 -16 -14 -23 -7 -8 -10 -18 -7 -23 4 -5 2 -9 -4 -9 -6 0 -13
-11 -17 -25 -3 -14 -9 -23 -13 -21 -3 2 -7 -8 -8 -22 0 -15 -6 -28 -12 -30 -6
-2 -9 -8 -5 -13 3 -5 0 -9 -6 -9 -6 0 -9 -4 -6 -8 3 -5 -3 -18 -13 -28 -9 -11
-15 -26 -13 -33 3 -9 0 -11 -8 -6 -8 5 -11 4 -7 -2 8 -13 -17 -66 -26 -56 -4
3 -7 -5 -7 -20 0 -14 -5 -29 -11 -32 -6 -4 -8 -13 -5 -20 3 -8 2 -15 -2 -17
-4 -2 -19 -18 -32 -37 -13 -19 -18 -31 -11 -27 11 7 10 4 0 -15 -7 -13 -13
-28 -14 -32 0 -4 -7 -12 -15 -17 -8 -5 -11 -10 -6 -10 5 0 1 -10 -10 -22 -10
-12 -13 -18 -5 -13 8 5 5 -6 -8 -24 -13 -17 -20 -38 -17 -46 3 -8 0 -14 -6
-12 -5 1 -12 -7 -14 -17 -1 -10 -8 -22 -14 -26 -7 -4 -11 -9 -9 -11 5 -10 -13
-49 -22 -44 -5 3 -6 0 -3 -8 3 -8 -1 -21 -9 -28 -7 -8 -12 -19 -10 -25 2 -7
-3 -18 -11 -27 -8 -8 -12 -17 -9 -21 4 -3 1 -6 -6 -6 -7 0 -9 -4 -6 -10 3 -5
1 -10 -4 -10 -6 0 -10 -3 -10 -7 3 -20 -2 -34 -11 -28 -6 3 -7 -1 -4 -9 3 -9
1 -16 -6 -16 -6 0 -8 -5 -5 -10 3 -6 -1 -17 -9 -26 -9 -9 -14 -19 -11 -24 3
-4 -2 -13 -10 -20 -8 -7 -12 -16 -9 -21 3 -5 1 -9 -4 -9 -6 0 -13 -7 -16 -16
-6 -15 -4 -15 11 -3 10 7 5 -1 -11 -19 -17 -18 -26 -32 -22 -32 5 0 3 -6 -3
-13 -6 -8 -8 -17 -4 -20 3 -4 -1 -9 -10 -13 -9 -3 -14 -14 -12 -25 2 -11 1
-18 -3 -15 -4 2 -12 -7 -19 -20 -8 -18 -8 -23 0 -18 7 3 4 -1 -7 -10 -10 -8
-15 -19 -12 -25 4 -5 -2 -14 -11 -20 -10 -5 -17 -12 -15 -15 6 -16 0 -26 -15
-27 -12 0 -13 -2 -5 -6 10 -4 10 -8 0 -21 -7 -8 -13 -18 -13 -21 0 -3 -3 -5
-6 -4 -4 1 -5 -7 -2 -17 3 -12 0 -20 -6 -20 -7 0 -9 -4 -6 -10 3 -5 2 -10 -4
-10 -5 0 -8 -9 -6 -20 2 -11 -1 -19 -8 -17 -6 1 -13 -8 -15 -21 -2 -12 -8 -20
-13 -17 -5 3 -6 -1 -3 -9 3 -9 1 -16 -5 -16 -6 0 -10 -3 -9 -7 3 -12 -14 -57
-23 -63 -5 -3 -10 -16 -12 -29 -2 -12 -10 -27 -18 -32 -8 -5 -10 -9 -5 -9 5 0
3 -7 -4 -15 -7 -8 -9 -15 -4 -15 5 0 1 -5 -8 -11 -11 -6 -15 -16 -11 -26 5
-12 3 -14 -7 -8 -10 6 -12 4 -7 -7 3 -9 -2 -24 -11 -35 -9 -10 -18 -25 -20
-33 -2 -8 -9 -18 -15 -22 -7 -4 -9 -8 -4 -8 4 0 1 -13 -8 -30 -9 -16 -13 -30
-10 -30 4 0 -1 -7 -9 -16 -9 -8 -14 -20 -11 -25 4 -5 1 -9 -5 -9 -6 0 -9 -4
-5 -9 3 -6 -3 -14 -12 -20 -10 -6 -14 -11 -9 -11 5 0 3 -7 -4 -15 -6 -8 -9
-19 -5 -25 3 -5 2 -10 -4 -10 -6 0 -13 -11 -17 -25 -3 -14 -10 -25 -15 -25 -5
0 -9 -12 -9 -26 0 -14 -4 -23 -10 -19 -5 3 -10 -3 -10 -14 0 -11 -5 -23 -10
-26 -6 -4 -8 -11 -5 -16 4 -5 2 -9 -3 -9 -6 0 -13 -7 -16 -16 -4 -10 -2 -13 7
-9 6 4 4 0 -6 -8 -10 -9 -19 -19 -19 -24 0 -4 -5 -19 -11 -33 -6 -14 -10 -28
-9 -32 1 -5 -2 -8 -7 -8 -5 0 -12 -11 -15 -25 -4 -14 -10 -24 -14 -21 -4 2 -8
-8 -9 -22 0 -14 -8 -31 -15 -36 -8 -6 -13 -17 -11 -23 3 -7 -3 -16 -12 -19
-13 -5 -14 -8 -3 -15 10 -7 10 -9 1 -9 -7 0 -13 -7 -13 -15 0 -8 -4 -15 -8
-15 -4 0 -8 -10 -9 -22 -1 -11 -7 -24 -13 -28 -7 -4 -12 -11 -13 -16 -1 -5 -5
-8 -9 -7 -4 2 -4 -9 -2 -23 4 -19 1 -25 -8 -21 -8 3 -15 -3 -16 -14 -1 -11 -3
-28 -4 -38 -1 -11 -6 -17 -10 -15 -4 3 -8 -4 -8 -15 0 -12 -4 -21 -10 -21 -5
0 -10 -7 -10 -15 0 -8 -4 -15 -10 -15 -5 0 -9 -3 -8 -7 3 -15 -14 -63 -21 -59
-4 3 -8 -5 -8 -17 -1 -12 -7 -23 -13 -25 -5 -2 -10 -12 -10 -22 0 -10 -4 -22
-10 -25 -5 -3 -10 -15 -10 -26 0 -11 -7 -19 -17 -20 -10 0 -13 -3 -6 -5 7 -3
9 -12 6 -20 -3 -7 -9 -11 -14 -8 -5 3 -9 -3 -9 -14 0 -10 -3 -22 -7 -26 -4 -3
-8 -12 -9 -19 -5 -27 -42 -86 -50 -79 -5 4 -2 -2 6 -12 10 -13 10 -17 3 -12
-8 4 -13 1 -13 -8 0 -9 -4 -16 -8 -16 -5 0 -9 -7 -10 -15 -1 -8 -3 -22 -4 -30
-1 -8 -8 -17 -15 -19 -8 -3 -11 -10 -8 -16 3 -5 1 -10 -4 -10 -6 0 -11 -3 -10
-7 2 -16 -14 -53 -22 -53 -5 0 -8 -3 -8 -7 3 -20 -2 -34 -10 -29 -5 4 -8 -5
-7 -18 2 -14 -3 -27 -11 -30 -8 -3 -11 -10 -8 -16 3 -6 -1 -13 -9 -16 -9 -3
-14 -10 -11 -14 3 -5 1 -11 -5 -15 -6 -4 -8 -10 -5 -15 3 -4 -1 -10 -9 -13 -8
-3 -12 -16 -11 -31 2 -14 -1 -26 -6 -26 -6 0 -7 -4 -4 -10 3 -5 1 -10 -5 -10
-7 0 -10 -7 -6 -15 3 -8 1 -15 -4 -15 -6 0 -10 -5 -10 -11 0 -7 -8 -18 -17
-26 -10 -8 -12 -12 -5 -8 6 3 12 1 12 -4 0 -6 -4 -11 -9 -11 -5 0 -12 -11 -15
-25 -4 -14 -10 -23 -15 -21 -5 3 -9 0 -8 -7 1 -30 -4 -48 -11 -43 -5 3 -9 -1
-10 -9 -1 -8 -3 -22 -4 -30 -1 -8 -5 -15 -10 -15 -4 0 -8 -5 -8 -11 0 -6 -9
-24 -21 -40 -11 -16 -17 -33 -14 -39 3 -5 1 -10 -4 -10 -6 0 -10 -6 -9 -12 2
-7 -2 -12 -8 -11 -6 1 -10 -8 -10 -20 1 -12 -4 -21 -11 -20 -7 2 -10 -6 -8
-17 2 -11 -1 -22 -6 -25 -5 -4 -7 -11 -4 -16 4 -5 1 -9 -5 -9 -6 0 -9 -4 -6
-9 3 -5 -1 -12 -10 -15 -8 -3 -12 -10 -9 -16 3 -5 2 -10 -4 -10 -6 0 -7 -8 -4
-17 5 -12 2 -15 -8 -11 -10 4 -14 -3 -15 -24 -1 -17 -5 -33 -10 -37 -14 -9
-34 -49 -34 -66 0 -8 -5 -15 -12 -15 -6 0 -8 -3 -5 -7 4 -3 -1 -15 -10 -26
-13 -15 -14 -19 -3 -13 13 7 13 6 0 -6 -8 -7 -16 -22 -18 -33 -2 -11 -10 -25
-17 -31 -11 -8 -12 -13 -2 -23 9 -10 9 -12 -3 -9 -9 2 -14 -4 -14 -15 1 -9 -1
-17 -5 -17 -4 0 -13 -16 -21 -35 -7 -19 -17 -32 -22 -29 -4 3 -5 -2 -2 -10 3
-9 1 -16 -6 -16 -6 0 -9 -4 -6 -8 3 -5 -5 -24 -16 -43 -12 -19 -23 -38 -23
-44 -5 -28 -18 -54 -25 -50 -5 3 -7 -3 -6 -12 2 -10 -4 -24 -13 -31 -11 -9
-11 -11 -2 -6 10 5 7 -3 -6 -22 -11 -16 -23 -38 -25 -49 -2 -11 -9 -19 -15
-18 -6 1 -9 -6 -6 -17 3 -13 0 -20 -8 -20 -11 0 -11 -2 1 -10 13 -8 12 -10 -2
-10 -11 0 -18 -8 -18 -20 0 -11 -5 -20 -11 -20 -5 0 -8 -4 -4 -9 3 -5 1 -12
-5 -16 -6 -4 -8 -11 -5 -16 4 -5 -2 -9 -12 -9 -15 0 -16 -2 -3 -10 14 -9 7
-14 -13 -11 -5 1 -5 -4 -1 -10 3 -6 0 -15 -7 -20 -11 -7 -11 -9 -1 -9 7 0 10
-5 7 -10 -4 -6 -11 -8 -16 -5 -5 4 -9 -3 -9 -15 0 -12 -7 -28 -15 -37 -8 -8
-12 -19 -9 -25 4 -6 2 -8 -4 -4 -6 3 -13 2 -17 -4 -3 -5 -1 -10 6 -10 10 0 10
-3 1 -12 -7 -7 -12 -20 -12 -30 0 -10 -4 -18 -10 -18 -5 0 -10 -9 -10 -20 0
-11 -7 -23 -15 -26 -8 -4 -13 -10 -10 -14 5 -9 -34 -91 -48 -101 -5 -3 -8 -9
-8 -13 3 -17 -12 -55 -20 -50 -5 3 -6 -1 -3 -9 3 -8 -2 -17 -11 -21 -9 -3 -15
-11 -14 -18 4 -19 -11 -58 -22 -58 -5 0 -9 -8 -7 -17 2 -11 -2 -17 -10 -15 -8
1 -10 -2 -7 -8 4 -6 -1 -21 -12 -32 -12 -14 -13 -19 -3 -13 11 6 10 3 -3 -12
-9 -11 -14 -22 -11 -26 3 -3 -3 -16 -15 -28 -11 -12 -18 -26 -15 -31 3 -4 0
-8 -6 -8 -6 0 -9 -4 -5 -9 3 -5 1 -12 -5 -16 -5 -3 -10 -15 -10 -26 0 -10 -4
-19 -8 -19 -12 0 -34 -49 -27 -60 3 -4 -2 -10 -10 -14 -9 -3 -12 -12 -8 -22 4
-11 3 -15 -5 -10 -6 3 -13 2 -17 -4 -3 -5 0 -10 7 -10 9 -1 7 -5 -4 -14 -10
-7 -15 -16 -11 -19 3 -4 1 -7 -6 -7 -7 0 -9 -5 -6 -10 3 -6 -1 -17 -9 -26 -9
-9 -14 -20 -11 -25 4 -5 1 -9 -5 -9 -6 0 -8 -4 -5 -10 3 -6 1 -10 -5 -10 -7 0
-10 -6 -7 -14 3 -8 -1 -17 -10 -20 -8 -4 -13 -13 -10 -20 3 -8 -1 -17 -10 -20
-9 -4 -13 -9 -9 -13 3 -3 -2 -15 -11 -26 -13 -15 -14 -18 -3 -12 13 8 13 7 0
-11 -8 -10 -20 -22 -27 -26 -6 -5 -9 -17 -6 -28 3 -12 -1 -22 -11 -26 -9 -3
-13 -10 -10 -15 3 -5 -5 -23 -17 -41 -13 -17 -18 -28 -11 -24 7 4 12 2 12 -3
0 -6 -7 -11 -15 -11 -8 0 -14 -3 -14 -7 3 -21 -2 -33 -13 -27 -6 4 -8 3 -5 -3
3 -5 -1 -23 -9 -39 -9 -16 -15 -30 -15 -31 4 -14 -1 -23 -9 -18 -6 4 -10 3 -9
-2 5 -19 -14 -62 -24 -56 -5 3 -7 2 -4 -4 7 -12 -14 -63 -26 -63 -5 0 -5 -5
-1 -11 3 -6 1 -15 -5 -19 -7 -4 -13 -16 -14 -28 0 -12 -3 -19 -6 -16 -7 6 -35
-58 -34 -79 0 -13 -4 -16 -15 -12 -9 3 -13 3 -9 -1 4 -4 1 -14 -6 -22 -10 -13
-9 -14 3 -7 8 4 4 -4 -10 -20 -14 -16 -20 -25 -13 -22 8 5 8 1 0 -17 -7 -13
-15 -22 -20 -19 -4 2 -6 1 -5 -4 4 -12 -23 -73 -33 -73 -5 0 -6 -6 -3 -14 3
-7 -2 -16 -10 -19 -9 -4 -13 -15 -11 -26 2 -12 -3 -25 -13 -30 -9 -5 -15 -12
-13 -16 4 -7 -20 -68 -30 -75 -4 -3 -9 -14 -11 -25 -1 -11 -11 -27 -21 -37
-13 -12 -15 -17 -5 -21 11 -4 10 -6 0 -6 -7 -1 -10 -5 -7 -11 3 -5 1 -10 -4
-10 -6 0 -11 -9 -11 -21 0 -11 -4 -18 -9 -15 -5 3 -12 -1 -15 -10 -4 -10 -2
-13 7 -8 6 4 5 -1 -4 -12 -24 -29 -34 -48 -20 -40 6 4 -2 -13 -19 -37 -16 -25
-30 -54 -30 -65 0 -11 -7 -25 -15 -32 -8 -7 -12 -16 -9 -21 3 -5 0 -9 -5 -9
-6 0 -11 -9 -11 -20 0 -11 -4 -20 -10 -20 -5 0 -10 -11 -10 -25 0 -16 -6 -25
-16 -25 -8 0 -12 -4 -9 -10 3 -5 -1 -20 -10 -33 -8 -13 -12 -27 -8 -30 3 -4 1
-7 -6 -7 -7 0 -9 -4 -6 -10 3 -5 1 -10 -6 -10 -6 0 -9 -8 -6 -20 3 -11 2 -18
-2 -15 -10 5 -35 -45 -32 -63 1 -7 -5 -15 -13 -18 -9 -3 -14 -10 -11 -14 3 -5
-1 -14 -8 -22 -8 -7 -12 -19 -9 -26 2 -6 -1 -12 -7 -12 -6 0 -11 -6 -11 -14 0
-18 -26 -67 -32 -61 -2 3 -5 -2 -6 -10 -1 -8 -3 -22 -4 -30 -1 -9 -6 -14 -12
-12 -7 3 -11 -6 -11 -22 0 -17 -5 -25 -14 -23 -11 2 -12 0 -2 -11 9 -12 8 -16
-4 -21 -8 -3 -15 -12 -15 -21 0 -8 -5 -15 -12 -15 -6 0 -8 -3 -5 -7 4 -3 0
-17 -8 -29 -11 -17 -12 -24 -2 -27 7 -3 5 -6 -5 -6 -11 -1 -18 -9 -18 -22 0
-13 -4 -18 -12 -13 -8 5 -7 0 2 -11 8 -10 10 -16 4 -12 -14 8 -27 -20 -17 -35
3 -6 2 -9 -3 -6 -5 3 -18 -4 -28 -15 -19 -20 -19 -20 0 -14 19 7 19 7 0 -8
-11 -8 -15 -15 -9 -15 12 0 22 -29 16 -48 -3 -6 -8 -10 -12 -7 -4 2 -7 -9 -6
-24 1 -22 -2 -28 -13 -23 -10 3 -13 1 -8 -6 4 -7 2 -12 -6 -12 -9 0 -9 -3 2
-10 9 -6 10 -10 3 -10 -7 0 -17 -9 -23 -19 -7 -14 -7 -19 3 -17 27 6 47 19 41
27 -3 5 2 9 10 9 9 0 16 5 16 11 0 5 4 7 10 4 6 -4 7 1 3 11 -5 14 -3 16 11
11 9 -4 15 -3 12 2 -3 4 7 14 22 21 35 17 52 20 52 9 0 -4 7 -5 17 -2 11 4 14
3 9 -5 -7 -11 11 -17 41 -13 7 1 10 -4 8 -11 -4 -9 3 -14 16 -15 12 -1 26 -8
30 -15 5 -7 9 -9 9 -4 0 5 6 3 13 -3 8 -6 17 -8 20 -4 4 3 7 1 7 -6 0 -8 7
-11 15 -7 9 3 15 0 15 -10 0 -8 4 -13 9 -9 5 3 17 -2 25 -11 9 -9 16 -11 16
-4 0 7 7 5 16 -4 8 -9 20 -14 25 -11 5 4 9 2 9 -2 0 -5 9 -14 21 -21 17 -11
20 -11 13 0 -4 7 2 4 14 -6 12 -11 22 -15 22 -10 0 5 4 5 8 -1 4 -5 18 -16 31
-23 19 -11 22 -11 16 0 -3 7 0 5 8 -4 8 -10 17 -15 20 -11 4 3 7 1 7 -6 0 -7
5 -9 10 -6 6 3 10 1 10 -5 0 -6 4 -9 9 -6 5 4 12 0 14 -6 4 -10 6 -10 6 0 1 7
9 4 21 -8 11 -11 29 -20 40 -20 11 0 23 -7 26 -15 4 -8 10 -12 15 -9 5 3 9 0
9 -5 0 -6 5 -11 11 -11 5 0 7 6 3 13 -4 6 4 2 18 -10 13 -13 34 -23 47 -23 12
0 19 -4 16 -10 -4 -6 5 -10 20 -10 15 0 24 -4 20 -10 -3 -6 3 -10 15 -10 12 0
28 -7 37 -15 8 -8 19 -13 24 -10 5 4 9 1 9 -5 0 -6 5 -8 10 -5 6 3 10 1 10 -5
0 -6 5 -8 10 -5 6 3 10 1 10 -6 0 -7 3 -9 7 -6 3 4 15 -1 26 -10 11 -10 17
-12 13 -5 -7 11 -4 11 13 0 12 -7 21 -16 21 -20 0 -5 14 -8 32 -8 17 0 29 -3
25 -6 -3 -4 15 -17 41 -30 25 -13 48 -21 50 -19 2 2 13 -5 24 -15 11 -10 26
-16 34 -13 8 3 14 0 14 -6 0 -6 9 -11 20 -11 11 0 20 -4 20 -10 0 -5 8 -10 19
-10 10 0 24 -7 31 -15 7 -9 19 -14 26 -11 7 3 14 1 16 -4 2 -5 10 -10 18 -12
8 -2 18 -7 21 -11 5 -7 26 -14 52 -16 5 -1 5 -5 2 -11 -4 -6 1 -7 11 -3 13 5
15 3 9 -7 -6 -10 -4 -12 8 -7 9 3 20 1 24 -6 5 -7 20 -12 36 -13 15 -1 25 1
22 4 -2 3 3 11 13 19 10 9 11 11 2 7 -13 -7 -13 -5 -1 9 7 9 11 24 7 32 -5 13
4 19 25 17 3 -1 4 10 1 23 -3 16 1 27 11 31 9 3 14 11 11 18 -2 6 5 22 16 34
11 12 16 22 10 22 -5 0 -2 9 8 20 9 12 17 26 17 33 1 7 7 11 14 9 7 -1 10 2 6
8 -10 16 5 51 18 44 9 -5 9 -4 0 6 -8 9 -6 17 8 31 11 11 17 24 14 29 -4 6 -1
10 5 10 6 0 9 4 6 9 -3 4 3 16 14 26 13 11 18 27 16 42 -3 13 -1 21 5 18 8 -5
11 1 8 21 0 3 7 11 16 18 9 7 15 21 13 32 -2 13 2 18 12 16 8 -2 12 -1 8 3 -4
4 2 23 12 43 10 21 20 44 22 52 2 8 9 21 16 28 7 8 10 18 7 23 -4 5 -1 9 5 9
6 0 8 5 5 10 -3 6 -1 10 5 10 6 0 9 4 6 9 -3 5 1 14 10 21 8 7 13 19 10 27 -3
8 -2 12 3 9 5 -3 12 1 15 10 4 10 2 13 -7 9 -6 -4 -3 1 7 9 11 9 16 16 12 16
-5 0 -3 7 4 15 7 8 9 15 4 15 -5 0 -1 5 9 11 9 6 15 14 12 20 -4 5 1 16 9 25
9 9 14 20 11 25 -4 5 -1 9 5 9 6 0 8 5 5 10 -3 6 -3 10 2 10 11 0 34 51 27 61
-3 5 -1 9 4 9 4 0 14 16 22 35 8 19 17 35 22 35 4 0 5 7 2 15 -4 8 -2 15 4 15
5 0 12 14 16 31 3 17 10 28 15 25 5 -3 12 1 15 10 3 8 2 12 -4 9 -6 -3 -7 1
-4 9 3 9 10 16 16 16 5 0 7 4 3 9 -3 5 -1 12 5 16 6 4 8 10 5 15 -3 4 2 11 11
14 8 3 12 10 9 16 -3 6 1 17 10 26 9 9 14 22 11 29 -3 8 2 16 11 19 9 4 13 13
9 21 -3 9 1 18 9 21 8 4 15 15 15 25 0 10 5 19 11 19 6 0 8 7 5 15 -3 9 1 18
9 21 8 4 13 10 10 14 -3 5 -1 11 5 15 5 3 10 15 10 26 0 13 4 18 12 13 7 -5 8
-3 4 5 -5 7 -1 20 8 30 9 10 16 25 14 32 -2 8 3 13 10 11 8 -1 11 2 7 8 -3 5
-2 10 4 10 6 0 8 7 5 15 -4 8 -1 15 6 15 6 0 9 4 5 9 -3 5 1 16 9 24 8 8 12
17 9 21 -3 3 2 15 11 25 10 11 18 25 20 33 1 8 12 31 24 52 12 21 23 48 24 61
1 13 6 21 10 19 8 -5 12 11 9 30 -1 5 4 13 11 17 7 5 13 14 13 21 1 7 6 12 12
11 7 -2 10 6 8 17 -2 11 2 26 10 34 8 7 11 16 8 20 -4 3 2 13 13 21 10 8 15
15 10 15 -5 0 -3 7 4 15 7 8 9 15 6 15 -4 0 -1 7 8 15 8 9 12 23 9 32 -4 10
-2 14 4 10 7 -4 14 5 18 23 4 16 11 30 16 30 6 0 7 9 4 20 -4 14 -2 20 6 18 7
-2 14 3 15 10 1 6 3 15 4 20 1 4 2 10 1 15 0 4 7 7 16 7 13 0 14 3 5 12 -9 9
-8 14 4 22 8 6 16 21 17 34 0 12 5 22 9 22 4 0 8 7 8 15 0 9 7 18 16 22 13 5
13 7 2 14 -11 7 -11 9 1 9 8 0 11 6 7 16 -3 8 -2 13 2 10 4 -3 13 4 20 15 10
15 10 19 0 19 -9 0 -10 2 -2 8 18 11 55 82 49 93 -4 5 -1 9 4 9 6 0 11 7 11
16 0 8 4 13 8 10 8 -5 12 8 13 47 0 9 4 15 9 12 5 -3 11 8 15 25 4 16 11 30
16 30 5 0 9 12 9 26 0 14 4 23 10 19 6 -4 13 7 16 24 4 17 11 31 16 31 5 0 7
4 3 9 -3 5 0 13 6 17 8 4 7 9 -2 15 -11 7 -10 9 5 9 12 0 16 5 12 16 -3 8 -2
12 4 9 6 -3 11 -1 11 4 4 30 20 62 29 56 4 -2 5 8 2 23 -3 15 -1 24 3 19 8 -7
55 81 59 111 1 7 8 18 14 24 7 7 12 18 12 26 0 7 5 10 11 7 6 -4 10 -1 8 6 -4
32 2 60 11 54 6 -3 10 3 10 14 0 11 7 27 16 35 8 9 13 16 9 16 -3 0 1 13 9 29
9 16 12 31 9 35 -4 3 2 6 12 6 10 0 16 3 12 6 -3 4 0 19 8 34 8 15 11 30 8 34
-4 3 -1 6 6 6 7 0 10 4 7 9 -3 5 1 12 10 15 9 4 14 13 10 21 -3 8 0 15 6 15 6
0 8 3 5 7 -4 3 1 12 11 20 9 8 11 12 5 8 -7 -3 -13 -2 -13 3 0 6 7 13 16 16 8
3 12 10 9 16 -3 5 -1 10 5 10 6 0 8 5 5 10 -3 6 -1 10 5 10 7 0 10 6 7 14 -3
8 -2 16 3 18 5 2 10 10 12 18 2 8 10 21 18 28 13 12 13 13 0 6 -9 -5 -8 1 5
15 11 13 20 26 20 30 0 3 3 5 6 4 3 -1 5 9 3 23 -1 13 1 22 5 20 3 -2 11 7 18
20 8 18 8 23 0 18 -7 -3 -4 1 7 10 10 8 15 19 11 25 -3 6 -1 11 5 11 6 0 9 4
6 9 -4 5 -2 11 3 13 5 1 11 10 13 18 2 8 10 21 18 28 13 12 13 13 0 6 -12 -7
-13 -5 -3 8 7 8 9 19 5 23 -4 5 -1 5 6 1 11 -6 17 11 13 37 0 4 6 7 14 7 9 0
12 6 9 15 -4 8 -1 15 6 15 6 0 9 4 5 9 -3 5 1 15 8 23 8 7 12 19 9 27 -3 8 0
11 6 7 7 -4 9 1 7 14 -2 11 0 20 5 20 5 0 15 14 24 30 9 20 10 28 3 24 -7 -3
-5 0 3 8 8 7 17 22 18 33 2 10 11 24 20 31 14 10 19 24 24 66 1 9 6 14 10 12
7 -5 12 10 9 29 -1 4 5 10 13 13 8 3 12 12 9 20 -3 8 0 14 7 14 6 0 8 5 5 11
-4 5 0 18 8 27 9 9 17 24 19 32 2 8 9 21 16 28 7 8 10 18 7 23 -4 5 -1 9 5 9
6 0 8 5 5 10 -3 6 -1 10 5 10 6 0 8 5 5 10 -3 6 -1 10 6 10 7 0 9 3 6 6 -3 4
0 16 8 28 8 11 15 28 15 38 0 9 8 23 19 30 10 7 17 21 15 31 -1 9 3 23 10 30
7 7 11 17 9 23 -2 7 3 19 12 27 8 9 15 19 15 23 0 13 53 118 69 138 9 11 10
16 4 12 -7 -4 -13 -2 -13 3 0 6 4 11 10 11 5 0 12 11 16 25 3 14 10 25 16 25
5 0 6 5 3 10 -3 6 -1 10 5 10 6 0 9 4 5 9 -3 5 1 15 8 23 8 7 12 19 9 26 -2 6
1 12 7 12 6 0 11 12 11 26 0 14 4 23 9 20 11 -7 23 22 14 37 -4 7 0 8 12 3 15
-5 16 -4 5 9 -10 12 -10 15 0 15 7 0 10 7 6 16 -3 8 -2 12 4 9 5 -3 12 6 16
20 3 14 9 25 13 25 4 0 8 7 9 15 1 8 3 22 4 30 1 8 5 12 10 9 4 -3 9 0 9 5 1
6 2 17 3 24 1 6 8 11 16 9 11 -2 11 0 1 11 -9 12 -8 16 4 21 9 3 14 10 10 15
-3 5 0 13 6 16 5 4 8 13 5 21 -3 8 1 14 9 14 8 0 15 9 15 19 0 11 5 23 10 26
6 3 10 15 10 26 0 10 5 19 10 19 6 0 10 9 10 20 0 11 5 20 11 20 5 0 7 5 4 10
-3 6 -1 10 4 10 6 0 10 3 9 8 -2 11 13 45 31 66 9 11 10 16 3 12 -7 -4 1 16
18 45 17 28 29 54 26 56 -3 3 4 14 14 26 11 11 17 24 14 29 -3 4 0 8 5 8 6 0
10 3 9 8 -3 14 14 62 23 62 5 0 9 9 9 21 0 11 4 17 10 14 6 -3 7 1 4 9 -3 9
-1 16 5 16 6 0 10 3 9 8 -1 4 3 17 10 30 7 12 9 22 5 22 -4 0 0 5 10 11 9 5
17 19 17 30 0 11 4 18 8 15 5 -3 8 8 7 24 -1 16 1 28 4 27 3 -1 7 2 8 7 1 5 6
12 13 16 11 7 17 27 19 58 1 7 5 11 10 7 6 -3 13 10 17 30 3 20 14 41 23 48 9
6 16 21 16 32 0 11 5 23 10 27 6 4 10 11 10 15 1 4 8 22 18 39 9 17 13 34 10
38 -4 3 1 6 9 6 10 0 14 8 13 24 -2 18 1 23 11 19 10 -4 12 0 8 10 -3 9 6 32
23 54 15 20 22 34 16 29 -18 -10 -16 2 2 20 8 9 15 24 15 35 0 10 5 19 10 19
6 0 10 7 10 15 0 8 4 15 10 15 5 0 9 3 9 8 -3 19 2 33 10 28 5 -3 9 0 8 7 -1
32 4 48 13 42 6 -4 10 -3 9 2 -4 24 2 43 13 37 6 -4 8 -3 5 3 -3 5 1 22 9 37
7 16 14 33 14 38 0 5 7 16 15 25 8 8 12 20 8 26 -4 7 0 8 12 3 15 -5 16 -4 5
9 -9 11 -9 15 -1 15 7 0 10 4 6 9 -3 5 1 15 8 23 7 7 14 18 15 23 1 6 9 18 17
28 11 12 11 17 2 17 -7 1 -4 6 6 14 10 8 18 17 18 20 -3 27 1 46 8 41 5 -3 13
5 16 16 4 12 14 37 21 56 8 18 14 36 15 40 0 5 7 12 15 16 8 5 12 12 9 17 -3
5 -1 11 5 15 6 4 8 11 5 16 -4 5 -1 9 5 9 6 0 8 5 5 10 -3 6 -1 10 4 10 6 0
10 3 9 8 -3 13 25 62 32 57 4 -3 6 9 5 25 -1 16 1 28 4 25 12 -7 44 63 37 80
-3 9 -2 14 3 11 7 -5 18 9 26 34 8 26 30 60 39 60 6 0 4 5 -4 10 -10 6 -11 10
-3 10 7 0 12 6 10 13 -1 6 4 11 11 9 8 -1 11 2 7 8 -3 6 1 17 10 26 9 9 14 23
11 30 -3 8 -1 14 5 14 6 0 7 5 4 10 -3 6 -1 10 5 10 6 0 9 4 5 9 -3 5 -1 12 5
16 6 4 8 10 6 14 -3 4 4 14 15 21 10 8 19 24 19 36 0 13 6 29 13 36 7 7 14 15
14 18 7 35 17 60 23 60 5 0 11 14 15 30 4 19 11 28 18 23 7 -3 9 -3 5 1 -4 5
2 24 12 44 11 19 17 39 14 44 -3 4 0 8 6 8 6 0 8 5 5 10 -3 6 -2 10 3 10 9 0
23 31 26 55 1 6 6 13 13 18 6 4 10 16 8 27 -2 11 1 19 8 17 7 -1 11 6 11 16
-1 9 2 17 8 17 5 0 6 5 3 10 -3 6 -1 10 6 10 7 0 10 3 6 6 -3 4 1 13 9 21 8 9
13 22 10 29 -3 8 -2 14 2 14 4 0 14 13 23 29 13 22 14 32 5 41 -8 8 -6 9 9 4
11 -4 17 -4 13 1 -4 4 -3 14 3 22 6 7 8 13 3 13 -5 0 -2 5 6 10 8 5 15 17 15
27 0 10 6 17 13 15 8 -1 11 2 7 8 -4 6 -1 18 7 27 11 14 11 16 -2 9 -9 -4 -8
-1 3 7 9 8 17 19 17 26 0 6 6 11 13 11 8 0 7 4 -3 10 -10 6 -11 10 -2 10 6 0
12 7 12 16 0 8 4 12 10 9 6 -3 7 1 4 9 -3 9 -1 16 5 16 6 0 8 6 5 14 -3 7 2
16 10 19 9 4 13 15 11 27 -2 11 0 18 5 15 4 -3 11 8 15 25 4 16 11 30 17 30 6
0 8 7 4 15 -3 8 -1 15 4 15 6 0 10 7 10 16 0 8 4 12 10 9 6 -3 7 1 4 9 -4 10
-1 16 7 16 7 0 10 3 6 6 -3 4 3 24 14 46 11 21 17 44 13 50 -4 6 -3 8 4 4 6
-3 13 3 17 14 3 11 10 20 14 20 4 0 7 10 8 22 1 12 9 26 18 31 13 7 14 12 4
23 -9 11 -8 15 4 20 14 5 31 39 28 57 -1 4 3 7 9 7 5 0 10 9 10 20 0 11 4 20
10 20 5 0 6 8 3 17 -5 12 -2 15 9 11 9 -4 15 -1 15 5 -1 40 4 58 14 51 7 -4
10 -1 7 7 -3 8 2 20 11 27 13 11 13 12 1 7 -12 -5 -12 -4 1 7 9 7 14 19 12 26
-3 6 0 12 6 12 6 0 11 9 11 20 0 11 5 20 10 20 6 0 9 3 8 8 -1 4 3 18 9 32 6
14 11 29 11 34 0 5 5 12 10 15 5 3 14 20 19 36 6 17 16 29 22 28 6 -2 10 7 8
20 -1 12 3 21 9 20 5 -1 9 12 8 28 -1 16 2 27 7 24 4 -3 11 6 15 20 3 14 10
25 16 25 5 0 7 4 3 9 -3 5 -1 12 5 16 6 4 8 11 5 16 -4 5 -1 9 5 9 6 0 8 5 5
10 -3 6 -1 10 5 10 6 0 9 4 6 9 -4 5 -3 11 1 13 5 1 18 22 30 46 12 23 17 40
12 37 -5 -4 -9 -2 -9 3 0 6 7 13 16 16 9 4 14 9 11 13 -4 3 1 12 11 20 11 10
12 12 2 8 -13 -6 -13 -5 0 7 8 7 15 18 16 23 3 22 17 55 24 55 8 0 25 49 22
63 -1 4 3 7 10 7 6 0 8 3 5 7 -4 3 0 15 10 25 9 10 13 21 10 25 -4 3 0 11 7
17 8 6 16 20 18 31 2 11 9 26 16 33 7 8 10 18 7 23 -4 5 1 6 9 3 11 -4 13 0 9
15 -3 12 -1 21 4 21 5 0 9 10 10 22 1 11 7 24 13 28 6 4 12 17 13 29 1 12 6
20 13 17 8 -3 11 2 9 15 -2 10 0 19 6 19 5 0 9 3 8 8 -2 15 14 52 23 52 6 0 8
7 4 15 -3 8 -1 15 5 15 6 0 7 5 3 12 -5 7 -2 9 9 5 11 -4 14 -2 10 9 -3 8 1
22 8 31 12 14 12 16 -1 8 -8 -4 -5 2 8 15 13 12 21 29 18 37 -3 8 -2 12 3 9 5
-3 12 1 15 10 4 10 2 13 -7 8 -6 -4 -4 2 6 13 9 11 17 25 17 31 0 7 5 12 11
12 5 0 8 4 4 10 -3 5 3 18 15 30 11 11 16 20 11 20 -10 0 29 83 42 88 4 2 7
15 7 28 0 14 4 22 10 19 6 -3 10 3 10 15 0 11 6 23 14 26 8 3 12 12 9 20 -3 8
-9 11 -14 8 -15 -9 -10 33 5 46 8 6 12 18 9 26 -3 8 -1 14 4 14 6 0 15 11 21
24 14 32 -8 55 -31 32 -8 -8 -17 -12 -21 -9 -3 4 -6 1 -6 -6 0 -7 -5 -9 -12
-5 -6 4 -8 3 -4 -4 3 -6 -8 -20 -24 -32 -34 -25 -90 -33 -90 -14 0 16 -28 26
-34 11 -3 -9 -5 -9 -5 0 -1 14 -80 55 -91 48 -4 -3 -11 2 -14 11 -4 9 -9 14
-13 11 -3 -4 -12 1 -20 11 -8 9 -12 12 -9 5 3 -6 -12 -3 -34 8 -22 11 -40 24
-40 29 0 6 -5 10 -11 10 -5 0 -7 -5 -3 -12 4 -7 -7 -2 -24 11 -18 12 -36 20
-41 17 -5 -3 -12 1 -15 10 -3 8 -10 12 -16 9 -5 -3 -10 -1 -10 5 0 6 -4 8 -10
5 -5 -3 -10 -1 -10 5 0 6 -4 9 -9 5 -5 -3 -12 -1 -16 5 -3 5 -15 10 -26 10
-11 0 -17 5 -14 10 3 6 -3 10 -14 10 -12 0 -21 5 -21 11 0 5 -4 7 -10 4 -5 -3
-10 -1 -10 5 0 6 -5 8 -10 5 -6 -3 -22 2 -38 13 -27 19 -76 39 -78 31 0 -2 -8
4 -18 14 -10 9 -22 15 -27 12 -5 -4 -9 -1 -9 6 0 7 -3 10 -6 6 -4 -3 -13 1
-21 9 -8 8 -19 12 -24 9 -5 -4 -9 -1 -9 5 0 6 -4 8 -10 5 -5 -3 -10 -1 -10 5
0 6 -4 8 -10 5 -5 -3 -10 -1 -10 5 0 6 -4 9 -9 6 -5 -3 -14 1 -21 9 -7 8 -21
15 -31 15 -11 0 -19 5 -19 11 0 5 -4 8 -9 5 -4 -3 -17 1 -27 9 -10 8 -27 15
-37 15 -10 0 -16 4 -13 8 2 4 -5 9 -17 9 -12 1 -23 7 -25 13 -2 5 -11 10 -20
10 -8 0 -24 8 -35 18 -11 9 -17 11 -13 5 5 -9 2 -11 -8 -7 -8 3 -17 12 -20 20
-3 9 -10 12 -16 9 -5 -3 -10 -2 -10 4 0 6 -7 8 -15 5 -8 -4 -15 -1 -15 6 0 6
-4 8 -10 5 -5 -3 -10 -1 -10 5 0 6 -4 8 -10 5 -5 -3 -10 -2 -10 3 0 6 -7 13
-16 16 -10 4 -13 2 -8 -7 7 -10 -21 7 -36 23 -3 3 -24 12 -47 19 -23 8 -40 18
-37 22 3 5 -7 9 -21 9 -14 0 -24 4 -21 8 2 4 -5 9 -16 9 -12 1 -24 7 -28 13
-4 6 -11 10 -16 9 -21 -4 -35 2 -29 11 3 6 4 10 1 10 -3 0 -7 -2 -7 -5z"/>
<path d="M14687 16526 c-25 -11 -26 -14 -12 -26 8 -7 16 -11 18 -9 17 30 27
49 25 48 -2 0 -16 -6 -31 -13z"/>
<path d="M6110 7656 c0 -2 8 -10 18 -17 15 -13 16 -12 3 4 -13 16 -21 21 -21
13z"/>
</g>
</svg>
